<svg width="23" height="23" viewBox="0 0 23 23" fill="none" xmlns="http://www.w3.org/2000/svg">
<path fill-rule="evenodd" clip-rule="evenodd" d="M19.7953 19.7938C20.2952 19.2924 20.6877 18.6898 20.9438 18.0289C21.1891 17.3941 21.3578 16.6704 21.4069 15.6093C21.4559 14.5467 21.4682 14.2063 21.4682 11.5C21.4682 8.79367 21.4559 8.45327 21.4069 7.39067C21.3578 6.3296 21.1891 5.60587 20.9438 4.97107C20.6934 4.30613 20.3009 3.70383 19.7938 3.2062C19.2961 2.69912 18.6938 2.30667 18.0289 2.0562C17.3941 1.81087 16.6704 1.6422 15.6093 1.59313C14.5467 1.54407 14.2063 1.53333 11.5 1.53333C8.79366 1.53333 8.45326 1.54407 7.39066 1.59467C6.32959 1.64067 5.60586 1.80933 4.97106 2.0562C4.30645 2.30724 3.70429 2.69962 3.20619 3.2062C2.69961 3.7043 2.30724 4.30646 2.05619 4.97107C1.81086 5.60587 1.64219 6.3296 1.59313 7.39067C1.54406 8.45327 1.53333 8.79367 1.53333 11.5C1.53333 14.2063 1.54406 14.5467 1.59466 15.6093C1.64066 16.6704 1.80933 17.3941 2.05619 18.0289C2.30766 18.6944 2.70019 19.2955 3.20619 19.7938C3.70453 20.2998 4.30713 20.6923 4.97106 20.9438C5.60586 21.1891 6.32959 21.3578 7.39066 21.4069C8.45326 21.4544 8.79366 21.4667 11.5 21.4667C14.2063 21.4667 14.5467 21.4544 15.6093 21.4053C16.6704 21.3593 17.3941 21.1907 18.0289 20.9438C18.6909 20.6876 19.292 20.2959 19.7938 19.7938H19.7953ZM3.06666 10.327V12.673C3.06359 13.9319 3.06359 14.2585 3.09733 14.973C3.13719 15.8715 3.18626 16.5309 3.33653 17.0277C3.48066 17.5061 3.64166 17.9937 4.16913 18.5794C4.69659 19.1667 5.20413 19.4319 5.85119 19.6282C6.49979 19.8229 7.31399 19.8643 8.02086 19.8965C8.82126 19.9333 9.14019 19.9333 10.8207 19.9333H12.6347C13.9257 19.9349 14.2508 19.9364 14.9745 19.9027C15.8715 19.8613 16.5309 19.8122 17.0292 19.6635C17.5061 19.5193 17.9937 19.3568 18.5794 18.8309C19.1667 18.3034 19.4319 17.7943 19.6282 17.1473C19.8229 16.5002 19.8659 15.686 19.8981 14.9791C19.9333 14.1787 19.9333 13.8613 19.9333 12.1854V10.8207C19.9333 9.1402 19.9333 8.8228 19.8981 8.02087C19.8659 7.314 19.8229 6.4998 19.6282 5.85273C19.4335 5.20413 19.1682 4.6966 18.5794 4.16913C17.9921 3.64167 17.5061 3.48067 17.0292 3.33653C16.5309 3.1878 15.8715 3.1372 14.9745 3.09733C14.195 3.0653 13.4147 3.05507 12.6347 3.06667H10.8207C9.14019 3.06667 8.82126 3.06667 8.02086 3.10193C7.31399 3.13413 6.49979 3.17707 5.85119 3.3718C5.20413 3.56807 4.69659 3.83333 4.16913 4.4206C3.64166 5.00787 3.47913 5.49393 3.33653 5.97233C3.18626 6.46913 3.13719 7.12847 3.09733 8.027C3.06359 8.74153 3.06359 9.06813 3.06666 10.327ZM11.5 8.05C10.585 8.05 9.70747 8.41348 9.06047 9.06048C8.41347 9.70748 8.04999 10.585 8.04999 11.5C8.04999 12.415 8.41347 13.2925 9.06047 13.9395C9.70747 14.5865 10.585 14.95 11.5 14.95C12.415 14.95 13.2925 14.5865 13.9395 13.9395C14.5865 13.2925 14.95 12.415 14.95 11.5C14.95 10.585 14.5865 9.70748 13.9395 9.06048C13.2925 8.41348 12.415 8.05 11.5 8.05ZM6.51666 11.5C6.51666 10.1783 7.04169 8.91081 7.97624 7.97625C8.9108 7.04169 10.1783 6.51667 11.5 6.51667C12.8217 6.51667 14.0892 7.04169 15.0237 7.97625C15.9583 8.91081 16.4833 10.1783 16.4833 11.5C16.4833 12.8217 15.9583 14.0892 15.0237 15.0237C14.0892 15.9583 12.8217 16.4833 11.5 16.4833C10.1783 16.4833 8.9108 15.9583 7.97624 15.0237C7.04169 14.0892 6.51666 12.8217 6.51666 11.5ZM16.8207 7.32933C17.1257 7.32933 17.4182 7.20817 17.6338 6.99251C17.8495 6.77684 17.9707 6.48433 17.9707 6.17933C17.9707 5.87433 17.8495 5.58183 17.6338 5.36616C17.4182 5.15049 17.1257 5.02933 16.8207 5.02933C16.5157 5.02933 16.2232 5.15049 16.0075 5.36616C15.7918 5.58183 15.6707 5.87433 15.6707 6.17933C15.6707 6.48433 15.7918 6.77684 16.0075 6.99251C16.2232 7.20817 16.5157 7.32933 16.8207 7.32933Z" fill="#111111"/>
</svg>
