<svg width="176" height="88" viewBox="0 0 176 88" fill="none" xmlns="http://www.w3.org/2000/svg">
<path d="M81.304 5.75061C85.1553 2.44305 90.8447 2.44305 94.696 5.75061L101.961 11.9897C104.438 14.1174 107.78 14.941 110.962 14.2083L120.294 12.06C125.241 10.9211 130.279 13.5651 132.152 18.2835L135.685 27.184C136.89 30.2195 139.466 32.5015 142.625 33.3318L151.886 35.7664C156.796 37.057 160.028 41.7392 159.494 46.7877L158.486 56.3106C158.142 59.5583 159.362 62.7761 161.773 64.9791L168.843 71.4388C172.59 74.8633 173.276 80.5112 170.457 84.7331L165.139 92.6968C163.325 95.4128 162.91 98.8291 164.021 101.9L167.279 110.905C169.006 115.679 166.988 120.999 162.53 123.427L154.12 128.007C151.252 129.569 149.297 132.401 148.854 135.637L147.553 145.124C146.864 150.154 142.605 153.927 137.529 154.005L127.954 154.152C124.689 154.202 121.642 155.802 119.745 158.461L114.185 166.257C111.237 170.39 105.713 171.752 101.182 169.462L92.6355 165.143C89.7207 163.67 86.2793 163.67 83.3645 165.143L74.8178 169.462C70.2869 171.752 64.7629 170.39 61.8151 166.257L56.2546 158.461C54.3582 155.802 51.311 154.202 48.0455 154.152L38.4706 154.005C33.3945 153.927 29.136 150.154 28.4466 145.124L27.1461 135.637C26.7026 132.401 24.7477 129.569 21.8796 128.007L13.4699 123.427C9.01159 120.999 6.99413 115.679 8.72107 110.905L11.9786 101.9C13.0895 98.8291 12.6747 95.4128 10.8611 92.6968L5.54319 84.7331C2.72397 80.5112 3.40974 74.8633 7.15741 71.4388L14.2266 64.9791C16.6375 62.7761 17.8579 59.5583 17.5142 56.3106L16.5063 46.7877C15.9721 41.7392 19.204 37.057 24.1138 35.7664L33.3753 33.3318C36.5338 32.5015 39.1097 30.2195 40.3147 27.184L43.8478 18.2835C45.7209 13.5651 50.7585 10.9211 55.7058 12.06L65.0378 14.2084C68.2204 14.941 71.5618 14.1174 74.0394 11.9896L81.304 5.75061Z" fill="#FBC800"/>
<path d="M45.225 76.1723C47.745 76.1723 49.473 74.8043 49.473 72.6443C49.473 70.3043 47.421 69.6563 45.135 68.9003C43.425 68.3423 42.345 67.9103 42.345 66.5423C42.345 65.1563 43.443 64.3643 44.955 64.3643C46.611 64.3643 47.583 65.3183 48.051 66.4523L49.113 65.8583C48.465 64.3643 47.025 63.1403 44.955 63.1403C42.867 63.1403 41.085 64.3823 41.085 66.5963C41.085 68.9183 43.065 69.4583 45.117 70.1423C46.971 70.7543 48.213 71.2223 48.213 72.6803C48.213 74.0303 47.151 74.9483 45.243 74.9483C43.263 74.9483 42.075 73.9763 41.625 72.4643L40.545 73.0943C41.193 75.0023 42.903 76.1723 45.225 76.1723ZM55.8258 76.1723C57.5898 76.1723 59.1198 75.2543 59.8578 73.8323L58.8678 73.2563C58.2918 74.3003 57.1938 75.0203 55.8258 75.0203C53.8278 75.0203 52.2798 73.4543 52.2798 71.4563C52.2798 69.4583 53.8278 67.8923 55.8258 67.8923C57.1758 67.8923 58.3098 68.5943 58.7958 69.6563L59.7678 69.0983C59.1198 67.6763 57.6078 66.7403 55.8258 66.7403C53.1078 66.7403 51.0918 68.7923 51.0918 71.4563C51.0918 74.1203 53.1078 76.1723 55.8258 76.1723ZM62.7515 68.4503V66.9563H61.5635V75.9563H62.7515V70.9523C62.7515 68.7203 64.1555 67.9643 65.5955 67.9643V66.8123C64.4435 66.8123 63.3815 67.1903 62.7515 68.4503ZM70.8727 76.1723C73.5007 76.1723 75.6067 74.1203 75.6067 71.4563C75.6067 68.7923 73.5007 66.7403 70.8727 66.7403C68.2447 66.7403 66.1387 68.7923 66.1387 71.4563C66.1387 74.1203 68.2447 76.1723 70.8727 76.1723ZM70.8727 75.0203C68.8747 75.0203 67.3267 73.4543 67.3267 71.4563C67.3267 69.4583 68.8747 67.8923 70.8727 67.8923C72.8707 67.8923 74.4187 69.4583 74.4187 71.4563C74.4187 73.4543 72.8707 75.0203 70.8727 75.0203ZM77.5947 75.9563H78.7827V62.8163H77.5947V75.9563ZM81.3037 75.9563H82.4917V62.8163H81.3037V75.9563ZM94.5527 63.3563H89.6927V75.9563H94.5527C98.0267 75.9563 100.493 73.1303 100.493 69.6563C100.493 66.1823 98.0267 63.3563 94.5527 63.3563ZM94.5527 74.7683H90.9527V64.5443H94.5527C97.3607 64.5443 99.2687 66.8303 99.2687 69.6563C99.2687 72.4823 97.3607 74.7683 94.5527 74.7683ZM106.662 76.1723C109.29 76.1723 111.396 74.1203 111.396 71.4563C111.396 68.7923 109.29 66.7403 106.662 66.7403C104.034 66.7403 101.928 68.7923 101.928 71.4563C101.928 74.1203 104.034 76.1723 106.662 76.1723ZM106.662 75.0203C104.664 75.0203 103.116 73.4543 103.116 71.4563C103.116 69.4583 104.664 67.8923 106.662 67.8923C108.66 67.8923 110.208 69.4583 110.208 71.4563C110.208 73.4543 108.66 75.0203 106.662 75.0203ZM123.868 66.9563L121.654 74.4263L119.296 66.9563H118.108L115.75 74.4263L113.536 66.9563H112.312L115.084 75.9563H116.38L118.702 68.7023L121.024 75.9563H122.32L125.092 66.9563H123.868ZM131.096 66.7403C129.818 66.7403 128.774 67.2263 128.072 68.3603V66.9563H126.884V75.9563H128.072V71.2403C128.072 68.8283 129.404 67.8923 130.988 67.8923C132.554 67.8923 133.436 68.8283 133.436 70.4303V75.9563H134.624V70.4303C134.624 68.1803 133.292 66.7403 131.096 66.7403Z" fill="#232229"/>
<path d="M88.066 54L88.066 24.4087" stroke="#202020" stroke-width="1.55743"/>
<path d="M76.3054 40.5322C79.293 40.5322 88.0661 43.2511 88.0661 54.0001" stroke="#202020" stroke-width="1.55743"/>
<path d="M99.8269 40.5322C96.8393 40.5322 88.0663 43.2511 88.0663 54.0001" stroke="#202020" stroke-width="1.55743"/>
</svg>
