<svg width="38" height="41" viewBox="0 0 38 41" fill="none" xmlns="http://www.w3.org/2000/svg">
<path d="M24.0961 17.8166L23.9991 17.9311L24.1491 17.9364L24.2927 17.9416L24.2954 17.8688C24.3911 17.8723 24.4864 17.8759 24.5815 17.8796L24.5786 17.9523C24.6736 17.956 24.7683 17.9598 24.8626 17.9636L24.8656 17.8909C24.9616 17.8949 25.0573 17.8989 25.1526 17.903L25.1494 17.9758C25.2447 17.9799 25.3396 17.9841 25.4342 17.9885L25.4375 17.9158C25.5331 17.9201 25.6283 17.9246 25.7232 17.9292L25.7197 18.0019C25.8153 18.0065 25.9105 18.0112 26.0053 18.016L26.0089 17.9433C26.1041 17.9482 26.1989 17.9531 26.2932 17.9581L26.2893 18.0308C26.3853 18.0359 26.4808 18.0412 26.5758 18.0465L26.5799 17.9738C26.675 17.9791 26.7697 17.9845 26.864 17.99L26.8598 18.0627C26.9556 18.0683 27.051 18.074 27.1459 18.0799L27.1504 18.0072C27.2458 18.0131 27.3407 18.019 27.4352 18.0251L27.4305 18.0977C27.526 18.1038 27.621 18.11 27.7155 18.1164L27.7204 18.0437C27.8161 18.0501 27.9112 18.0566 28.0059 18.0633L28.0008 18.1359C28.096 18.1425 28.1906 18.1493 28.2847 18.1561L28.29 18.0835C28.3859 18.0905 28.4813 18.0976 28.5762 18.1048L28.5706 18.1774C28.6655 18.1846 28.7598 18.1919 28.8535 18.1994L28.8593 18.1268C28.9555 18.1344 29.051 18.1421 29.146 18.15L29.14 18.2225C29.2349 18.2304 29.3292 18.2383 29.4229 18.2463L29.4291 18.1738C29.5252 18.1821 29.6207 18.1905 29.7155 18.199L29.709 18.2715C29.804 18.28 29.8983 18.2886 29.9919 18.2973L29.9987 18.2248C30.0947 18.2338 30.19 18.2429 30.2846 18.252L30.2776 18.3245C30.3726 18.3337 30.4668 18.3431 30.5603 18.3525L30.5677 18.2801C30.6637 18.2898 30.7589 18.2997 30.8533 18.3096L30.8457 18.382C30.9406 18.392 31.0347 18.4021 31.128 18.4124L31.136 18.34C31.232 18.3506 31.3272 18.3613 31.4216 18.3721L31.4133 18.4444C31.508 18.4552 31.6018 18.4662 31.6947 18.4773L31.7034 18.4051C31.7996 18.4166 31.8949 18.4282 31.9892 18.44L31.9801 18.5122C32.0749 18.524 32.1687 18.536 32.2614 18.5481L32.2708 18.4759C32.3669 18.4884 32.4619 18.5011 32.5558 18.5139L32.546 18.586C32.6411 18.599 32.7351 18.6121 32.8279 18.6254L32.8382 18.5533C32.9337 18.567 33.0279 18.5808 33.1209 18.5947L33.1101 18.6667C33.2057 18.681 33.3 18.6955 33.393 18.7101L33.4043 18.6382C33.4991 18.6531 33.5924 18.6682 33.6843 18.6834L33.6724 18.7552C33.7683 18.7711 33.8626 18.7872 33.9553 18.8034L33.9678 18.7317C34.0634 18.7484 34.1573 18.7653 34.2494 18.7824L34.2361 18.8539C34.3307 18.8715 34.4233 18.8891 34.5141 18.907L34.5281 18.8355C34.624 18.8544 34.7178 18.8734 34.8095 18.8927L34.7946 18.9639C34.89 18.9839 34.9831 19.0041 35.0737 19.0245L35.0897 18.9535C35.185 18.975 35.2777 18.9966 35.3678 19.0185L35.3506 19.0892C35.4452 19.1122 35.5368 19.1354 35.6253 19.1588L35.6439 19.0884C35.7389 19.1135 35.8304 19.1388 35.9184 19.1644L35.8981 19.2343C35.9925 19.2618 36.0828 19.2895 36.1688 19.3175L36.1913 19.2483C36.2866 19.2793 36.3769 19.3107 36.4619 19.3423L36.4365 19.4105C36.5307 19.4456 36.6181 19.481 36.6986 19.5166L36.7281 19.4501C36.8226 19.4919 36.908 19.5342 36.9841 19.5769L36.9485 19.6404C37.0389 19.6911 37.1143 19.7417 37.1749 19.7918L37.2213 19.7357C37.3077 19.8072 37.3684 19.8797 37.4022 19.9532L37.336 19.9836C37.353 20.0204 37.3609 20.0558 37.3609 20.0904C37.3609 20.125 37.353 20.1604 37.336 20.1972L37.4022 20.2277C37.3684 20.3011 37.3077 20.3736 37.2213 20.4451L37.1749 20.389C37.1143 20.4391 37.0389 20.4897 36.9485 20.5404L36.9841 20.6039C36.908 20.6466 36.8226 20.6889 36.7281 20.7307L36.6986 20.6642C36.6181 20.6998 36.5307 20.7352 36.4365 20.7703L36.4619 20.8385C36.3769 20.8702 36.2866 20.9015 36.1913 20.9325L36.1688 20.8633C36.0828 20.8913 35.9925 20.919 35.8981 20.9465L35.9184 21.0164C35.8304 21.042 35.7389 21.0673 35.6439 21.0924L35.6253 21.0221C35.5368 21.0455 35.4452 21.0686 35.3506 21.0916L35.3678 21.1624C35.2777 21.1842 35.185 21.2059 35.0897 21.2273L35.0737 21.1563C34.9831 21.1767 34.89 21.1969 34.7946 21.2169L34.8095 21.2882C34.7178 21.3074 34.624 21.3264 34.5281 21.3453L34.5141 21.2739C34.4233 21.2917 34.3307 21.3094 34.2361 21.3269L34.2494 21.3985C34.1573 21.4155 34.0634 21.4324 33.9678 21.4491L33.9553 21.3774C33.8626 21.3936 33.7683 21.4097 33.6724 21.4256L33.6843 21.4974C33.5924 21.5126 33.4991 21.5277 33.4043 21.5426L33.393 21.4707C33.3 21.4853 33.2057 21.4998 33.1101 21.5142L33.1209 21.5861C33.0279 21.6001 32.9337 21.6139 32.8382 21.6275L32.8279 21.5554C32.7351 21.5687 32.6411 21.5818 32.546 21.5948L32.5558 21.6669C32.4619 21.6797 32.3669 21.6924 32.2708 21.7049L32.2614 21.6328C32.1687 21.6448 32.0749 21.6568 31.9801 21.6686L31.9892 21.7409C31.8949 21.7526 31.7996 21.7643 31.7034 21.7758L31.6947 21.7035C31.6018 21.7146 31.508 21.7256 31.4133 21.7364L31.4216 21.8087C31.3272 21.8196 31.232 21.8302 31.136 21.8408L31.128 21.7684C31.0347 21.7787 30.9406 21.7888 30.8457 21.7988L30.8533 21.8712C30.7589 21.8812 30.6637 21.891 30.5677 21.9007L30.5603 21.8283C30.4668 21.8378 30.3726 21.8471 30.2776 21.8563L30.2846 21.9288C30.19 21.938 30.0947 21.947 29.9987 21.956L29.9919 21.8835C29.8983 21.8922 29.804 21.9009 29.709 21.9094L29.7155 21.9819C29.6207 21.9904 29.5252 21.9987 29.4291 22.007L29.4229 21.9345C29.3292 21.9425 29.2349 21.9505 29.14 21.9583L29.146 22.0308C29.051 22.0387 28.9555 22.0464 28.8593 22.054L28.8535 21.9815C28.7598 21.9889 28.6655 21.9962 28.5706 22.0034L28.5762 22.076C28.4813 22.0832 28.3859 22.0903 28.29 22.0973L28.2847 22.0247C28.1906 22.0316 28.096 22.0383 28.0008 22.045L28.0059 22.1176C27.9112 22.1242 27.8161 22.1307 27.7204 22.1371L27.7155 22.0645C27.621 22.0708 27.526 22.077 27.4305 22.0831L27.4352 22.1558C27.3407 22.1618 27.2458 22.1678 27.1504 22.1736L27.1459 22.101C27.051 22.1068 26.9556 22.1125 26.8597 22.1181L26.864 22.1908C26.7697 22.1963 26.675 22.2017 26.5799 22.207L26.5758 22.1344C26.4808 22.1397 26.3853 22.1449 26.2894 22.15L26.2932 22.2227C26.1989 22.2277 26.1041 22.2326 26.0089 22.2375L26.0053 22.1648C25.9561 22.1673 25.9068 22.1697 25.8575 22.1722C25.8116 22.1745 25.7657 22.1767 25.7197 22.1789L25.7232 22.2516C25.6283 22.2562 25.5331 22.2607 25.4375 22.2651L25.4342 22.1924C25.3396 22.1967 25.2447 22.2009 25.1494 22.2051L25.1526 22.2778C25.0573 22.2819 24.9616 22.286 24.8656 22.2899L24.8626 22.2172C24.7683 22.221 24.6736 22.2248 24.5786 22.2285L24.5815 22.3012C24.4864 22.3049 24.3911 22.3085 24.2954 22.312L24.2927 22.2392L24.1491 22.2444L23.9991 22.2497L24.0961 22.3642L24.1909 22.4763L24.2465 22.4293C24.3097 22.504 24.3725 22.5785 24.4351 22.6528L24.3794 22.6997L24.5662 22.9221L24.622 22.8753C24.685 22.9504 24.7477 23.0254 24.8102 23.1002L24.7543 23.1468L24.9409 23.3707L24.9968 23.3242C25.0592 23.3992 25.1212 23.474 25.183 23.5485L25.1269 23.595C25.1894 23.6704 25.2515 23.7455 25.3133 23.8205L25.3694 23.7742C25.4313 23.8492 25.4928 23.924 25.554 23.9985L25.4977 24.0447C25.5599 24.1205 25.6218 24.1961 25.6834 24.2715L25.7398 24.2254C25.8015 24.301 25.8629 24.3763 25.924 24.4514L25.8675 24.4973C25.9291 24.573 25.9903 24.6485 26.0512 24.7237L26.1078 24.6779C26.1694 24.754 26.2307 24.8299 26.2916 24.9055L26.2349 24.9512C26.2959 25.0268 26.3564 25.1021 26.4166 25.1772L26.4734 25.1317C26.5349 25.2084 26.5961 25.2849 26.6568 25.3611L26.5999 25.4065C26.6607 25.4826 26.721 25.5584 26.7809 25.6339L26.8379 25.5887C26.8989 25.6655 26.9594 25.742 27.0196 25.8182L26.9624 25.8633C26.9936 25.9028 27.0247 25.9423 27.0557 25.9816C27.0848 26.0186 27.1138 26.0555 27.1428 26.0924L27.2 26.0474C27.2604 26.1243 27.3203 26.2009 27.3797 26.277L27.3224 26.3218C27.3827 26.3991 27.4426 26.476 27.5019 26.5526L27.5595 26.5079C27.6192 26.5849 27.6785 26.6615 27.7373 26.7378L27.6796 26.7822C27.7397 26.8601 27.7993 26.9376 27.8583 27.0147L27.9161 26.9704C27.9752 27.0475 28.0339 27.1243 28.092 27.2006L28.0341 27.2447C28.0938 27.3232 28.1531 27.4012 28.2117 27.4788L28.2698 27.4349C28.3285 27.5126 28.3867 27.5898 28.4443 27.6665L28.3861 27.7102C28.4453 27.7891 28.504 27.8674 28.562 27.9453L28.6203 27.9018C28.6786 27.98 28.7362 28.0576 28.7933 28.1347L28.7348 28.178C28.7934 28.2573 28.8514 28.3361 28.9088 28.4143L28.9675 28.3712C29.0251 28.4499 29.0821 28.5279 29.1385 28.6054L29.0796 28.6482C29.1377 28.7281 29.1951 28.8074 29.2518 28.8861L29.3108 28.8435C29.3678 28.9225 29.424 29.0009 29.4795 29.0787L29.4202 29.121C29.4778 29.2016 29.5345 29.2816 29.5904 29.3608L29.6499 29.3188C29.7063 29.3987 29.7619 29.4778 29.8166 29.5562L29.7569 29.5979C29.8135 29.679 29.8692 29.7592 29.924 29.8387L29.984 29.7973C30.0398 29.8783 30.0948 29.9585 30.1487 30.0377L30.0886 30.0787C30.1439 30.16 30.1982 30.2403 30.2516 30.3197L30.312 30.2792C30.3673 30.3615 30.4214 30.4428 30.4745 30.5231L30.4138 30.5633C30.4678 30.645 30.5207 30.7256 30.5723 30.8052L30.6334 30.7656C30.6876 30.849 30.7405 30.9313 30.7922 31.0123L30.7308 31.0514C30.784 31.135 30.8359 31.2173 30.8864 31.2982L30.9481 31.2597C31.0004 31.3435 31.0511 31.4259 31.1003 31.5068L31.0381 31.5446C31.0897 31.6296 31.1397 31.7129 31.1879 31.7945L31.2506 31.7575C31.3016 31.8439 31.3507 31.9284 31.3979 32.0111L31.3347 32.0472C31.3841 32.1339 31.4315 32.2185 31.4766 32.301L31.5405 32.266C31.5887 32.3542 31.6345 32.44 31.6777 32.5232L31.6131 32.5568C31.6594 32.646 31.7028 32.7323 31.7431 32.8155L31.8086 32.7838C31.8532 32.8757 31.8942 32.964 31.9315 33.0488L31.8649 33.0781C31.9062 33.1719 31.9428 33.2609 31.9748 33.3451L32.0429 33.3192C32.0802 33.4174 32.1113 33.5094 32.1361 33.5949L32.0662 33.6152C32.0959 33.7175 32.1159 33.8091 32.1264 33.8897L32.1985 33.8803C32.2135 33.9956 32.2106 34.0924 32.1889 34.1697L32.1188 34.1501C32.1072 34.1918 32.0898 34.2236 32.0681 34.2475C32.0453 34.2728 32.0157 34.2917 31.9772 34.3037L31.9989 34.3732C31.9212 34.3974 31.8227 34.3971 31.7046 34.3733L31.719 34.3019C31.6403 34.2861 31.5508 34.2588 31.4504 34.2197L31.424 34.2875C31.3392 34.2545 31.2481 34.2137 31.1509 34.1654L31.1832 34.1002C31.1024 34.0601 31.0171 34.0146 30.9273 33.9638L30.8914 34.0271C30.81 33.9811 30.7253 33.9308 30.6372 33.8764L30.6754 33.8144C30.5955 33.7651 30.5129 33.7123 30.4274 33.6561L30.3874 33.7169C30.3076 33.6644 30.2255 33.6091 30.1412 33.5508L30.1826 33.4909C30.1042 33.4368 30.0238 33.3802 29.9416 33.3211L29.8991 33.3802C29.8215 33.3246 29.7423 33.2667 29.6614 33.2068L29.7047 33.1483C29.6277 33.0912 29.5492 33.0322 29.4692 32.9713L29.4251 33.0292C29.348 32.9705 29.2695 32.9099 29.1897 32.8477L29.2344 32.7903C29.1582 32.7309 29.0808 32.6699 29.0022 32.6074L28.9569 32.6643C28.8815 32.6043 28.8049 32.5428 28.7273 32.4799L28.7732 32.4234C28.6976 32.3621 28.621 32.2995 28.5434 32.2356L28.4971 32.2918C28.4222 32.23 28.3463 32.1671 28.2696 32.1029L28.3163 32.0471C28.242 31.9849 28.1668 31.9216 28.0908 31.8572L28.0437 31.9128C27.9688 31.8493 27.8931 31.7847 27.8167 31.7191L27.8641 31.6639C27.7908 31.601 27.7169 31.5371 27.6422 31.4723L27.5945 31.5273C27.5204 31.463 27.4457 31.3978 27.3702 31.3316L27.4182 31.2769C27.3453 31.2129 27.2717 31.148 27.1975 31.0822L27.1492 31.1367C27.0759 31.0718 27.0021 31.006 26.9276 30.9393L26.9761 30.8851C26.9035 30.8201 26.8303 30.7543 26.7565 30.6878L26.7078 30.7418C26.6351 30.6763 26.5619 30.6099 26.4882 30.5429L26.5372 30.489C26.465 30.4233 26.3923 30.3568 26.319 30.2896L26.2698 30.3433C26.1977 30.2771 26.1251 30.2102 26.052 30.1427L26.1014 30.0892C26.0296 30.0229 25.9574 29.9558 25.8847 29.8882L25.8351 29.9415C25.7633 29.8747 25.6912 29.8072 25.6186 29.7392L25.6683 29.6861C25.597 29.6192 25.5253 29.5518 25.4532 29.4837L25.4033 29.5367C25.3318 29.4692 25.26 29.4012 25.1877 29.3326L25.2379 29.2799C25.1671 29.2126 25.0959 29.1448 25.0244 29.0765L24.9741 29.1291C24.9029 29.061 24.8313 28.9924 24.7593 28.9233L24.8098 28.8708C24.7858 28.8477 24.7617 28.8246 24.7377 28.8014C24.6912 28.7567 24.6446 28.7117 24.5979 28.6666L24.5473 28.7189C24.4763 28.6503 24.405 28.5811 24.3334 28.5115L24.3841 28.4593C24.3143 28.3914 24.2441 28.323 24.1736 28.2541L24.1228 28.3062C24.0523 28.2373 23.9816 28.168 23.9106 28.0983L23.9616 28.0464C23.8918 27.9778 23.8217 27.9087 23.7514 27.8392L23.7002 27.891C23.6303 27.822 23.5602 27.7526 23.4898 27.6828L23.5411 27.6311C23.4713 27.5618 23.4012 27.4921 23.3309 27.422L23.2795 27.4735C23.2102 27.4044 23.1406 27.3349 23.0709 27.2649L23.1224 27.2135C23.0526 27.1436 22.9826 27.0733 22.9124 27.0027L22.8608 27.054C22.7919 26.9846 22.7228 26.9149 22.6535 26.8449L22.7053 26.7937C22.6361 26.7237 22.5667 26.6534 22.4971 26.5827L22.4452 26.6338C22.3763 26.5637 22.3071 26.4934 22.2378 26.4226L22.2898 26.3717C22.2211 26.3016 22.1523 26.2313 22.0833 26.1605L22.0312 26.2114C21.9622 26.1407 21.893 26.0696 21.8236 25.9982L21.8758 25.9475C21.8076 25.8774 21.7393 25.807 21.6708 25.7362L21.6185 25.7869C21.55 25.7161 21.4813 25.645 21.4125 25.5736L21.4649 25.5231L21.3616 25.4158L21.2414 25.2908L21.2364 25.4641L21.2321 25.6098L21.3049 25.6119C21.302 25.7089 21.2991 25.8056 21.296 25.902L21.2233 25.8997L21.214 26.1878L21.2868 26.1902C21.2836 26.2873 21.2803 26.3841 21.2769 26.4805L21.2042 26.478L21.1938 26.7674L21.2666 26.77C21.2631 26.8664 21.2595 26.9624 21.2558 27.058L21.1831 27.0552L21.1716 27.3459L21.2444 27.3489C21.2405 27.4455 21.2365 27.5417 21.2325 27.6376L21.1597 27.6345L21.1473 27.9236L21.22 27.9268C21.2157 28.0238 21.2114 28.1205 21.207 28.2168L21.1343 28.2134L21.1208 28.5009L21.1935 28.5044C21.1888 28.6017 21.1841 28.6986 21.1792 28.7951L21.1065 28.7915L21.0918 29.0802L21.1645 29.0839C21.1595 29.1806 21.1544 29.2769 21.1492 29.3726L21.0765 29.3687C21.0712 29.4658 21.0659 29.5625 21.0605 29.6586L21.1331 29.6627C21.1277 29.759 21.1222 29.8547 21.1166 29.95L21.044 29.9457C21.0383 30.0431 21.0325 30.14 21.0266 30.2364L21.0993 30.2408C21.0934 30.3374 21.0874 30.4335 21.0814 30.5291L21.0087 30.5245C21.0026 30.6214 20.9964 30.7177 20.9901 30.8134L21.0627 30.8182C21.0564 30.9152 21.0499 31.0117 21.0434 31.1076L20.9707 31.1027C20.9642 31.199 20.9575 31.2947 20.9508 31.3899L21.0234 31.395C21.0165 31.4925 21.0095 31.5893 21.0024 31.6855L20.9298 31.6802C20.9228 31.7763 20.9156 31.8719 20.9084 31.9667L20.981 31.9723C20.9735 32.0698 20.966 32.1667 20.9584 32.2629L20.8858 32.2572C20.8782 32.3536 20.8705 32.4493 20.8627 32.5444L20.9352 32.5503C20.9272 32.6476 20.9191 32.7441 20.9109 32.8399L20.8384 32.8337C20.8302 32.9303 20.8218 33.0262 20.8134 33.1214L20.8859 33.1278C20.8773 33.2248 20.8686 33.3211 20.8598 33.4165L20.7873 33.4098C20.7784 33.5066 20.7694 33.6026 20.7603 33.6978L20.8328 33.7047C20.8235 33.8016 20.8141 33.8977 20.8046 33.9929L20.7322 33.9857C20.7226 34.0826 20.7128 34.1785 20.703 34.2735L20.7754 34.281C20.7653 34.378 20.7552 34.474 20.7449 34.569L20.6726 34.5612C20.6621 34.658 20.6516 34.7537 20.6409 34.8484L20.7133 34.8566C20.7023 34.9538 20.6913 35.0499 20.6802 35.1448L20.6079 35.1363C20.5965 35.2328 20.5851 35.3281 20.5736 35.4223L20.6458 35.4311C20.6338 35.5287 20.6218 35.625 20.6096 35.72L20.5374 35.7107C20.5251 35.8066 20.5126 35.9012 20.5001 35.9944L20.5722 36.0041C20.559 36.1022 20.5457 36.1988 20.5323 36.2939L20.4602 36.2837C20.4466 36.3803 20.4328 36.4754 20.4189 36.5688L20.4909 36.5795C20.4764 36.6765 20.4619 36.7718 20.4472 36.8654L20.3752 36.8541C20.3599 36.9516 20.3445 37.0471 20.3289 37.1408L20.4007 37.1527C20.3846 37.2495 20.3683 37.3442 20.3519 37.4368L20.2802 37.4241C20.2631 37.5209 20.2458 37.6153 20.2283 37.7074L20.2999 37.7209C20.2813 37.8189 20.2626 37.9142 20.2437 38.0068L20.1723 37.9923C20.1525 38.0894 20.1325 38.1836 20.1124 38.2746L20.1834 38.2904C20.1619 38.3877 20.1401 38.4816 20.1182 38.5719L20.0475 38.5548C20.0239 38.6516 20.0002 38.7444 19.9763 38.8329L20.0466 38.8519C20.0201 38.9497 19.9934 39.0425 19.9664 39.1301L19.8969 39.1087C19.8669 39.2062 19.8367 39.2969 19.8063 39.3809L19.8747 39.4057C19.839 39.5042 19.8029 39.5939 19.7665 39.6743L19.7002 39.6442C19.6564 39.7407 19.6127 39.8222 19.5693 39.8889L19.6304 39.9286C19.566 40.0276 19.5006 40.0982 19.4344 40.139L19.3962 40.077C19.361 40.0988 19.3289 40.1078 19.2992 40.1078C19.2694 40.1078 19.2374 40.0988 19.2021 40.0771L19.1639 40.139C19.0977 40.0982 19.0323 40.0276 18.968 39.9286L19.029 39.8889C18.9856 39.8223 18.9419 39.7407 18.8982 39.6442L18.8319 39.6743C18.7954 39.5939 18.7593 39.5042 18.7236 39.4057L18.792 39.3809C18.7616 39.2969 18.7314 39.2062 18.7014 39.1088L18.6319 39.1301C18.6049 39.0425 18.5782 38.9497 18.5518 38.8519L18.622 38.8329C18.5981 38.7444 18.5744 38.6516 18.5508 38.5548L18.4801 38.5719C18.4582 38.4816 18.4364 38.3877 18.4149 38.2904L18.4859 38.2746C18.4658 38.1836 18.4458 38.0894 18.426 37.9923L18.3546 38.0068C18.3358 37.9142 18.317 37.8189 18.2985 37.7209L18.37 37.7074C18.3525 37.6153 18.3352 37.5209 18.3181 37.4241L18.2464 37.4368C18.23 37.3442 18.2138 37.2495 18.1976 37.1527L18.2694 37.1408C18.2538 37.0471 18.2384 36.9516 18.2231 36.8541L18.1512 36.8654C18.1365 36.7718 18.1219 36.6765 18.1075 36.5795L18.1795 36.5688C18.1655 36.4754 18.1518 36.3803 18.1381 36.2837L18.066 36.2939C18.0526 36.1988 18.0393 36.1022 18.0261 36.0041L18.0982 35.9944C18.0857 35.9012 18.0733 35.8066 18.0609 35.7107L17.9887 35.72C17.9766 35.625 17.9645 35.5287 17.9525 35.4311L18.0248 35.4223C18.0132 35.3281 18.0018 35.2328 17.9905 35.1363L17.9182 35.1448C17.907 35.0498 17.896 34.9538 17.885 34.8566L17.9574 34.8484C17.9467 34.7537 17.9362 34.658 17.9257 34.5612L17.8534 34.569C17.8431 34.474 17.833 34.378 17.8229 34.281L17.8953 34.2735C17.8855 34.1785 17.8757 34.0825 17.8661 33.9857L17.7937 33.9929C17.7842 33.8977 17.7748 33.8016 17.7655 33.7047L17.838 33.6977C17.8289 33.6026 17.8199 33.5066 17.811 33.4098L17.7385 33.4165C17.7297 33.3211 17.721 33.2248 17.7124 33.1278L17.7849 33.1213C17.7765 33.0262 17.7681 32.9303 17.7599 32.8337L17.6874 32.8399C17.6792 32.7441 17.6711 32.6476 17.6631 32.5503L17.7357 32.5443C17.7279 32.4493 17.7201 32.3536 17.7125 32.2571L17.6399 32.2629C17.6323 32.1667 17.6248 32.0698 17.6174 31.9723L17.6899 31.9667C17.6827 31.8718 17.6755 31.7763 17.6685 31.6802L17.5959 31.6855C17.5888 31.5893 17.5818 31.4924 17.5749 31.395L17.6475 31.3899C17.6408 31.2947 17.6341 31.199 17.6276 31.1026L17.555 31.1076C17.5484 31.0117 17.542 30.9152 17.5356 30.8182L17.6082 30.8134C17.6019 30.7177 17.5957 30.6214 17.5896 30.5245L17.517 30.5291C17.5109 30.4335 17.5049 30.3374 17.4991 30.2408L17.5717 30.2364C17.5658 30.14 17.5601 30.0431 17.5544 29.9457L17.4817 29.95C17.4761 29.8547 17.4706 29.7589 17.4652 29.6627L17.5379 29.6586C17.5324 29.5624 17.5271 29.4658 17.5218 29.3687L17.4491 29.3726C17.444 29.2768 17.4388 29.1806 17.4338 29.0839L17.5065 29.0801L17.4918 28.7915L17.4191 28.7951C17.4143 28.6986 17.4095 28.6017 17.4048 28.5044L17.4776 28.5009L17.4641 28.2134L17.3913 28.2168C17.3869 28.1205 17.3826 28.0238 17.3783 27.9268L17.451 27.9236L17.4386 27.6345L17.3658 27.6375C17.3618 27.5417 17.3578 27.4454 17.354 27.3489L17.4267 27.3459L17.4153 27.0552L17.3425 27.058C17.3389 26.9623 17.3353 26.8663 17.3317 26.77L17.4045 26.7673L17.3941 26.478L17.3214 26.4805C17.318 26.3841 17.3148 26.2873 17.3116 26.1902L17.3843 26.1878L17.375 25.8997L17.3023 25.902C17.2993 25.8056 17.2963 25.7089 17.2934 25.6119L17.3662 25.6098L17.362 25.4641L17.357 25.2908L17.2367 25.4157L17.1334 25.523L17.1858 25.5735C17.117 25.6449 17.0483 25.716 16.9798 25.7868L16.9275 25.7362C16.859 25.8069 16.7907 25.8774 16.7226 25.9475L16.7748 25.9982C16.7054 26.0696 16.6362 26.1406 16.5671 26.2114L16.5151 26.1605C16.446 26.2312 16.3772 26.3016 16.3085 26.3716L16.3605 26.4226C16.2912 26.4933 16.222 26.5637 16.1531 26.6337L16.1012 26.5827C16.0316 26.6534 15.9622 26.7237 15.893 26.7937L15.9448 26.8449C15.8755 26.9149 15.8064 26.9846 15.7375 27.0539L15.6859 27.0026C15.6157 27.0733 15.5457 27.1436 15.4759 27.2135L15.5275 27.2649C15.4577 27.3348 15.3881 27.4044 15.3188 27.4735L15.2674 27.422C15.1971 27.4921 15.127 27.5618 15.0572 27.6311L15.1085 27.6827C15.0381 27.7526 14.968 27.822 14.8981 27.891L14.847 27.8392C14.7766 27.9087 14.7065 27.9777 14.6367 28.0463L14.6877 28.0983C14.6167 28.168 14.546 28.2373 14.4756 28.3061L14.4247 28.2541C14.3542 28.323 14.2841 28.3913 14.2142 28.4593L14.2649 28.5115C14.1933 28.5811 14.122 28.6502 14.051 28.7189L14.0004 28.6665C13.9295 28.7351 13.8588 28.8032 13.7885 28.8708L13.839 28.9233C13.767 28.9924 13.6955 29.061 13.6242 29.1291L13.5739 29.0764C13.5024 29.1448 13.4312 29.2126 13.3604 29.2798L13.4106 29.3326C13.3384 29.4012 13.2665 29.4692 13.1951 29.5366L13.1451 29.4837C13.073 29.5517 13.0013 29.6192 12.93 29.686L12.9798 29.7391C12.9072 29.8072 12.835 29.8746 12.7632 29.9414L12.7136 29.8882C12.641 29.9558 12.5687 30.0228 12.4969 30.0892L12.5463 30.1426C12.4733 30.2102 12.4006 30.2771 12.3285 30.3433L12.2793 30.2896C12.2061 30.3568 12.1333 30.4233 12.0611 30.489L12.1101 30.5428C12.0364 30.6099 11.9632 30.6762 11.8905 30.7418L11.8418 30.6878C11.768 30.7543 11.6948 30.8201 11.6222 30.8851L11.6707 30.9393C11.5963 31.0059 11.5224 31.0717 11.4491 31.1367L11.4008 31.0822C11.3266 31.148 11.253 31.2128 11.1801 31.2769L11.2281 31.3316C11.1527 31.3978 11.0779 31.463 11.0038 31.5273L10.9561 31.4723C10.8815 31.5371 10.8075 31.601 10.7342 31.6638L10.7817 31.7191C10.7052 31.7847 10.6295 31.8493 10.5546 31.9127L10.5075 31.8572C10.4315 31.9216 10.3564 31.9849 10.282 32.0471L10.3287 32.1029C10.252 32.1671 10.1761 32.23 10.1012 32.2917L10.0549 32.2356C9.97734 32.2995 9.90074 32.3621 9.82515 32.4233L9.87098 32.4799C9.79339 32.5428 9.71686 32.6043 9.64141 32.6643L9.59608 32.6073C9.51748 32.6699 9.44008 32.7309 9.36389 32.7903L9.40865 32.8477C9.32882 32.9099 9.25032 32.9704 9.17316 33.0292L9.12906 32.9713C9.04907 33.0322 8.97056 33.0912 8.89357 33.1483L8.93691 33.2067C8.85601 33.2667 8.77676 33.3245 8.6992 33.3802L8.65675 33.3211C8.57446 33.3802 8.49411 33.4368 8.41574 33.4909L8.45711 33.5508C8.37276 33.609 8.29067 33.6644 8.21089 33.7169L8.17089 33.6561C8.08545 33.7123 8.00276 33.7651 7.92289 33.8144L7.96114 33.8764C7.87305 33.9308 7.78826 33.9811 7.70689 34.0271L7.67103 33.9638C7.58123 34.0146 7.49587 34.0601 7.41506 34.1002L7.44743 34.1654C7.35017 34.2137 7.25906 34.2545 7.17434 34.2875L7.14791 34.2196C7.04753 34.2588 6.95796 34.2861 6.8793 34.3019L6.89369 34.3733C6.7756 34.3971 6.67712 34.3974 6.59945 34.3732L6.6211 34.3037C6.58262 34.2917 6.553 34.2728 6.53017 34.2475C6.50852 34.2235 6.49115 34.1918 6.47948 34.1501L6.40939 34.1697C6.38773 34.0924 6.38477 33.9956 6.39977 33.8803L6.47195 33.8897C6.48245 33.8091 6.50243 33.7175 6.5321 33.6152L6.46219 33.5949C6.487 33.5093 6.51813 33.4174 6.55543 33.3192L6.62348 33.3451C6.65546 33.2609 6.69213 33.1719 6.73343 33.0781L6.66682 33.0488C6.70413 32.964 6.74511 32.8757 6.78967 32.7837L6.85517 32.8155C6.89553 32.7322 6.93889 32.646 6.98521 32.5568L6.92061 32.5232C6.96385 32.44 7.00961 32.3542 7.05786 32.266L7.12171 32.301C7.16684 32.2185 7.21416 32.1339 7.26364 32.0472L7.20042 32.0111C7.24759 31.9284 7.2967 31.8439 7.34771 31.7575L7.41039 31.7945C7.45862 31.7129 7.50857 31.6295 7.56022 31.5446L7.49802 31.5068C7.54722 31.4259 7.59795 31.3435 7.65017 31.2597L7.71194 31.2982C7.7624 31.2173 7.81427 31.135 7.86753 31.0514L7.80614 31.0123C7.85778 30.9313 7.91071 30.849 7.96493 30.7655L8.02597 30.8052C8.07765 30.7256 8.13051 30.645 8.18451 30.5633L8.12378 30.5231C8.17686 30.4428 8.23104 30.3615 8.28632 30.2792L8.34675 30.3197C8.40006 30.2403 8.4544 30.16 8.50973 30.0787L8.44957 30.0377C8.50354 29.9584 8.55847 29.8783 8.61434 29.7973L8.67426 29.8387C8.72906 29.7592 8.78476 29.679 8.84136 29.5979L8.78168 29.5562C8.83643 29.4778 8.892 29.3987 8.94841 29.3188L9.00787 29.3608C9.06381 29.2816 9.12055 29.2016 9.1781 29.1209L9.11885 29.0787C9.17432 29.0009 9.23053 28.9225 9.28747 28.8435L9.34653 28.886C9.4032 28.8074 9.46059 28.7281 9.51869 28.6482L9.45982 28.6054C9.51616 28.5279 9.57316 28.4499 9.63083 28.3712L9.68952 28.4143C9.74688 28.3361 9.80489 28.2573 9.86355 28.178L9.80503 28.1347C9.86206 28.0576 9.91971 27.9799 9.97796 27.9018L10.0363 27.9453C10.0944 27.8674 10.153 27.7891 10.2122 27.7102L10.154 27.6665C10.2116 27.5898 10.2698 27.5126 10.3285 27.4349L10.3866 27.4788C10.4452 27.4012 10.5045 27.3232 10.5642 27.2447L10.5063 27.2006C10.5644 27.1243 10.6231 27.0475 10.6822 26.9704L10.74 27.0147C10.799 26.9376 10.8586 26.8601 10.9187 26.7822L10.8611 26.7378C10.9198 26.6615 10.9791 26.5849 11.0388 26.5079L11.0964 26.5526C11.1558 26.476 11.2156 26.3991 11.2759 26.3218L11.2186 26.277C11.278 26.2008 11.3379 26.1243 11.3983 26.0474L11.4555 26.0924C11.5152 26.0163 11.5753 25.94 11.6359 25.8633L11.5787 25.8182C11.6389 25.742 11.6994 25.6655 11.7604 25.5886L11.8174 25.6339C11.8773 25.5584 11.9377 25.4826 11.9984 25.4065L11.9415 25.3611C12.0022 25.2849 12.0634 25.2084 12.1249 25.1317L12.1817 25.1772C12.2419 25.1021 12.3024 25.0268 12.3634 24.9512L12.3067 24.9055C12.3676 24.8299 12.4289 24.754 12.4905 24.6779L12.5471 24.7237C12.608 24.6485 12.6692 24.573 12.7308 24.4973L12.6743 24.4513C12.7354 24.3763 12.7968 24.301 12.8585 24.2254L12.9149 24.2715C12.9765 24.1961 13.0384 24.1205 13.1006 24.0447L13.0443 23.9985C13.1055 23.924 13.167 23.8492 13.2289 23.7742L13.285 23.8205C13.3468 23.7455 13.409 23.6704 13.4714 23.595L13.4153 23.5485C13.4771 23.474 13.5391 23.3992 13.6015 23.3242L13.6574 23.3707L13.844 23.1468L13.7882 23.1002C13.8506 23.0254 13.9133 22.9504 13.9763 22.8753L14.0321 22.9221L14.2189 22.6997L14.1632 22.6528C14.2258 22.5785 14.2886 22.504 14.3518 22.4293L14.4074 22.4763L14.5022 22.3642L14.5992 22.2497L14.4492 22.2444L14.3055 22.2392L14.3029 22.312C14.2072 22.3085 14.1119 22.3049 14.0168 22.3012L14.0197 22.2285C13.9247 22.2248 13.83 22.221 13.7357 22.2172L13.7327 22.2899C13.6367 22.286 13.541 22.2819 13.4457 22.2778L13.4489 22.2051C13.3536 22.2009 13.2587 22.1967 13.1641 22.1924L13.1608 22.2651C13.0652 22.2607 12.97 22.2562 12.8751 22.2516L12.8786 22.1789C12.783 22.1743 12.6878 22.1696 12.593 22.1648L12.5894 22.2375C12.4942 22.2326 12.3994 22.2277 12.3051 22.2227L12.3089 22.15C12.213 22.1449 12.1175 22.1397 12.0225 22.1344L12.0184 22.207C11.9233 22.2017 11.8286 22.1963 11.7343 22.1908L11.7385 22.1181C11.6427 22.1125 11.5473 22.1068 11.4524 22.101L11.4479 22.1736C11.3525 22.1678 11.2576 22.1618 11.1631 22.1558L11.1678 22.0831C11.0723 22.077 10.9773 22.0708 10.8828 22.0645L10.8779 22.1371C10.7822 22.1307 10.6871 22.1242 10.5924 22.1176L10.5975 22.045C10.5023 22.0383 10.4077 22.0316 10.3136 22.0247L10.3083 22.0973C10.2124 22.0903 10.117 22.0832 10.0221 22.076L10.0277 22.0034C9.9328 21.9962 9.83851 21.9889 9.74478 21.9815L9.73904 22.054C9.64285 22.0464 9.54726 22.0387 9.45228 22.0308L9.45827 21.9583C9.36337 21.9505 9.26909 21.9425 9.17543 21.9345L9.1692 22.007C9.07308 21.9987 8.97761 21.9904 8.88281 21.9819L8.8893 21.9094C8.79432 21.9009 8.70001 21.8922 8.60638 21.8835L8.59962 21.956C8.50359 21.947 8.40829 21.938 8.31371 21.9288L8.32075 21.8563C8.22574 21.8471 8.13148 21.8378 8.03797 21.8283L8.03064 21.9007C7.93463 21.891 7.83941 21.8812 7.745 21.8712L7.75263 21.7988C7.6577 21.7888 7.56359 21.7787 7.4703 21.7684L7.46236 21.8408C7.36627 21.8302 7.27107 21.8196 7.17675 21.8087L7.18504 21.7364C7.09031 21.7256 6.99649 21.7146 6.9036 21.7035L6.89496 21.7758C6.7987 21.7643 6.70342 21.7526 6.60915 21.7409L6.61817 21.6686C6.52339 21.6568 6.42963 21.6448 6.33691 21.6328L6.3275 21.7049C6.23139 21.6924 6.13639 21.6797 6.04252 21.6669L6.05236 21.5948C5.95719 21.5818 5.8632 21.5687 5.77039 21.5554L5.76009 21.6275C5.66462 21.6139 5.5704 21.6001 5.47746 21.5861L5.48824 21.5142C5.39258 21.4998 5.29827 21.4853 5.20534 21.4707L5.19402 21.5426C5.09925 21.5277 5.00592 21.5126 4.91403 21.4974L4.92593 21.4256C4.83001 21.4097 4.7357 21.3936 4.64301 21.3774L4.63047 21.4491C4.53489 21.4324 4.44104 21.4155 4.34893 21.3984L4.36218 21.3269C4.26765 21.3094 4.17499 21.2917 4.08422 21.2739L4.07018 21.3453C3.97428 21.3264 3.88048 21.3074 3.78882 21.2882L3.80376 21.2169C3.70833 21.1969 3.61525 21.1767 3.52457 21.1563L3.5086 21.2273C3.41328 21.2059 3.32058 21.1842 3.23054 21.1624L3.24771 21.0916C3.15311 21.0686 3.06151 21.0455 2.97297 21.0221L2.95438 21.0924C2.85939 21.0673 2.76787 21.042 2.67988 21.0164L2.70021 20.9465C2.60577 20.919 2.51552 20.8913 2.42956 20.8633L2.40704 20.9325C2.31169 20.9015 2.22145 20.8702 2.13645 20.8385L2.16185 20.7703C2.06762 20.7352 1.98018 20.6998 1.89968 20.6642L1.87022 20.7307C1.77576 20.6889 1.69032 20.6466 1.61418 20.6039L1.64981 20.5404C1.55944 20.4897 1.48404 20.4391 1.42341 20.389L1.37703 20.4451C1.29062 20.3736 1.22991 20.3011 1.19614 20.2276L1.26227 20.1972C1.24534 20.1604 1.23746 20.125 1.23746 20.0904C1.23746 20.0558 1.24534 20.0204 1.26227 19.9836L1.19614 19.9532C1.22992 19.8797 1.29063 19.8072 1.37703 19.7357L1.42342 19.7918C1.48404 19.7417 1.55944 19.6911 1.64981 19.6404L1.61418 19.5769C1.69032 19.5342 1.77577 19.4919 1.87023 19.4501L1.89969 19.5166C1.98019 19.481 2.06762 19.4456 2.16186 19.4105L2.13645 19.3423C2.22145 19.3106 2.31169 19.2793 2.40705 19.2483L2.42957 19.3175C2.51553 19.2895 2.60577 19.2618 2.70022 19.2343L2.67989 19.1644C2.76788 19.1388 2.8594 19.1135 2.95438 19.0884L2.97298 19.1588C3.06151 19.1354 3.15311 19.1122 3.24772 19.0892L3.23054 19.0185C3.32058 18.9966 3.41328 18.975 3.5086 18.9535L3.52458 19.0245C3.61526 19.0041 3.70833 18.9839 3.80376 18.9639L3.78882 18.8927C3.88048 18.8734 3.97429 18.8544 4.07018 18.8355L4.08423 18.907C4.17499 18.8891 4.26765 18.8714 4.36218 18.8539L4.34893 18.7824C4.44104 18.7653 4.53489 18.7484 4.63047 18.7317L4.64301 18.8034C4.7357 18.7872 4.83001 18.7711 4.92593 18.7552L4.91403 18.6834C5.00592 18.6682 5.09925 18.6531 5.19402 18.6382L5.20534 18.7101C5.29827 18.6955 5.39258 18.681 5.48824 18.6667L5.47746 18.5947C5.5704 18.5808 5.66462 18.567 5.76009 18.5533L5.77039 18.6254C5.8632 18.6121 5.95719 18.599 6.05236 18.586L6.04252 18.5139C6.13639 18.5011 6.23139 18.4884 6.3275 18.4759L6.33691 18.5481C6.42963 18.536 6.52339 18.524 6.61817 18.5122L6.60915 18.44C6.70342 18.4282 6.7987 18.4166 6.89496 18.4051L6.9036 18.4773C6.99649 18.4662 7.09031 18.4552 7.18504 18.4444L7.17675 18.3721C7.27106 18.3613 7.36627 18.3506 7.46235 18.34L7.4703 18.4124C7.56359 18.4021 7.6577 18.392 7.75263 18.382L7.745 18.3096C7.83941 18.2997 7.93463 18.2898 8.03064 18.2801L8.03796 18.3525C8.13147 18.3431 8.22574 18.3337 8.32074 18.3245L8.31371 18.252C8.40829 18.2429 8.50359 18.2338 8.59962 18.2248L8.60638 18.2973C8.7 18.2886 8.79432 18.28 8.8893 18.2715L8.88281 18.199C8.97761 18.1905 9.07308 18.1821 9.1692 18.1738L9.17543 18.2463C9.26909 18.2383 9.36337 18.2304 9.45827 18.2225L9.45228 18.15C9.54726 18.1421 9.64285 18.1344 9.73904 18.1268L9.74478 18.1994C9.8385 18.1919 9.9328 18.1846 10.0277 18.1774L10.0221 18.1048C10.117 18.0976 10.2124 18.0905 10.3083 18.0835L10.3136 18.1561C10.4077 18.1493 10.5023 18.1425 10.5975 18.1359L10.5924 18.0633C10.6871 18.0566 10.7822 18.0501 10.8779 18.0437L10.8828 18.1164C10.9773 18.11 11.0723 18.1038 11.1678 18.0977L11.1631 18.0251C11.2576 18.019 11.3525 18.0131 11.4479 18.0072L11.4524 18.0799C11.5473 18.074 11.6427 18.0683 11.7386 18.0627L11.7343 17.99C11.8286 17.9845 11.9233 17.9791 12.0184 17.9738L12.0225 18.0465C12.1175 18.0411 12.213 18.0359 12.309 18.0308L12.3051 17.9581C12.3994 17.9531 12.4942 17.9482 12.5894 17.9433L12.593 18.016C12.6878 18.0112 12.783 18.0065 12.8786 18.0019L12.8751 17.9292C12.97 17.9246 13.0652 17.9201 13.1608 17.9158L13.1641 17.9885C13.2587 17.9841 13.3536 17.9799 13.4489 17.9758L13.4457 17.903C13.541 17.8989 13.6367 17.8949 13.7327 17.8909L13.7357 17.9636C13.83 17.9598 13.9247 17.956 14.0197 17.9523L14.0168 17.8796C14.1119 17.8759 14.2072 17.8723 14.3029 17.8688L14.3056 17.9416L14.4492 17.9364L14.5992 17.9311L14.5022 17.8166L14.4074 17.7045L14.3518 17.7515C14.2886 17.6768 14.2258 17.6023 14.1632 17.528L14.2189 17.4811L14.0321 17.2588L13.9763 17.3055C13.9133 17.2304 13.8506 17.1554 13.7881 17.0807L13.844 17.034L13.6574 16.8101L13.6015 16.8566C13.5391 16.7817 13.4771 16.7069 13.4153 16.6323L13.4714 16.5859C13.409 16.5105 13.3468 16.4353 13.285 16.3603L13.2289 16.4066C13.167 16.3316 13.1055 16.2568 13.0443 16.1823L13.1006 16.1361C13.0384 16.0603 12.9765 15.9847 12.9149 15.9094L12.8585 15.9554C12.7968 15.8799 12.7354 15.8045 12.6743 15.7295L12.7308 15.6835C12.6692 15.6078 12.608 15.5324 12.5471 15.4572L12.4905 15.503C12.4289 15.4268 12.3676 15.3509 12.3067 15.2753L12.3634 15.2297C12.3024 15.154 12.2419 15.0787 12.1817 15.0036L12.1249 15.0491C12.0634 14.9724 12.0022 14.8959 11.9415 14.8198L11.9984 14.7744C11.9376 14.6983 11.8773 14.6224 11.8174 14.5469L11.7604 14.5922C11.6994 14.5153 11.6389 14.4388 11.5787 14.3626L11.6359 14.3175C11.5753 14.2408 11.5152 14.1645 11.4555 14.0885L11.3983 14.1334C11.3379 14.0565 11.278 13.98 11.2186 13.9038L11.2759 13.859C11.2156 13.7817 11.1557 13.7048 11.0964 13.6283L11.0388 13.6729C10.9791 13.5959 10.9198 13.5193 10.861 13.4431L10.9187 13.3986C10.8586 13.3207 10.799 13.2432 10.74 13.1662L10.6822 13.2104C10.6231 13.1333 10.5644 13.0565 10.5063 12.9802L10.5642 12.9361C10.5045 12.8576 10.4452 12.7796 10.3866 12.702L10.3285 12.7459C10.2698 12.6683 10.2116 12.5911 10.154 12.5143L10.2122 12.4706C10.153 12.3918 10.0943 12.3134 10.0363 12.2355L9.97795 12.279C9.91971 12.2009 9.86206 12.1232 9.80503 12.0461L9.86355 12.0028C9.80489 11.9235 9.74688 11.8447 9.68952 11.7665L9.63082 11.8096C9.57316 11.731 9.51615 11.6529 9.45982 11.5754L9.51869 11.5326C9.46058 11.4527 9.40319 11.3734 9.34653 11.2948L9.28747 11.3373C9.23053 11.2583 9.17432 11.1799 9.11885 11.1022L9.1781 11.0599C9.12055 10.9792 9.0638 10.8993 9.00786 10.82L8.9484 10.862C8.892 10.7821 8.83642 10.703 8.78168 10.6246L8.84136 10.5829C8.78476 10.5019 8.72905 10.4216 8.67426 10.3422L8.61434 10.3835C8.55847 10.3025 8.50354 10.2224 8.44956 10.1431L8.50973 10.1021C8.45439 10.0209 8.40006 9.94051 8.34675 9.8611L8.28631 9.90167C8.23104 9.81933 8.17686 9.738 8.12378 9.65769L8.18451 9.61755C8.1305 9.53584 8.07765 9.45518 8.02596 9.37562L7.96492 9.41528C7.91071 9.33182 7.85777 9.24956 7.80614 9.16851L7.86753 9.1294C7.81427 9.04581 7.7624 8.96353 7.71194 8.88258L7.65017 8.92109C7.59794 8.83731 7.54722 8.75495 7.49802 8.67403L7.56021 8.63621C7.50857 8.55128 7.45862 8.46797 7.41039 8.38631L7.34771 8.42333C7.29669 8.33696 7.24759 8.25241 7.20042 8.16974L7.26364 8.13367C7.21415 8.04694 7.16683 7.96232 7.12171 7.87985L7.05785 7.91479C7.00961 7.82662 6.96385 7.74087 6.9206 7.65759L6.98521 7.62405C6.93889 7.53485 6.89553 7.44858 6.85516 7.36532L6.78966 7.39707C6.74511 7.30516 6.70413 7.21679 6.66681 7.13207L6.73343 7.10273C6.69213 7.00896 6.65545 6.91993 6.62347 6.83576L6.55543 6.86162C6.51813 6.76344 6.48699 6.67147 6.46219 6.58593L6.5321 6.56566C6.50242 6.46331 6.48244 6.37176 6.47194 6.29112L6.39976 6.30052C6.38476 6.18527 6.38773 6.08847 6.40938 6.01112L6.47947 6.03075C6.49115 5.98905 6.50852 5.95728 6.53017 5.93329C6.55299 5.90801 6.58262 5.8891 6.6211 5.8771L6.59944 5.80761C6.67712 5.7834 6.77559 5.78372 6.89368 5.80753L6.87929 5.87888C6.95795 5.89474 7.04752 5.92206 7.1479 5.96117L7.17433 5.89335C7.25906 5.92636 7.35016 5.96711 7.44742 6.01538L7.41506 6.08059C7.49587 6.1207 7.58123 6.16621 7.67102 6.21704L7.70688 6.1537C7.78826 6.19976 7.87304 6.25005 7.96114 6.30446L7.92289 6.36639C8.00276 6.41572 8.08544 6.46851 8.17088 6.52472L8.21089 6.4639C8.29066 6.51639 8.37276 6.57178 8.4571 6.63002L8.41574 6.68992C8.4941 6.74404 8.57445 6.80065 8.65674 6.85973L8.69919 6.8006C8.77676 6.85628 8.85601 6.91411 8.9369 6.97407L8.89356 7.03255C8.97056 7.08961 9.04907 7.14862 9.12906 7.20953L9.17316 7.15162C9.25031 7.21038 9.32882 7.27089 9.40865 7.33313L9.36389 7.39053C9.44007 7.44993 9.51748 7.51092 9.59608 7.57347L9.6414 7.51651C9.71685 7.57656 9.79339 7.63804 9.87098 7.70092L9.82515 7.75747C9.90074 7.81873 9.97734 7.88133 10.0549 7.94526L10.1012 7.88908C10.1761 7.9508 10.252 8.01376 10.3287 8.07792L10.282 8.13376C10.3563 8.19591 10.4315 8.2592 10.5075 8.32361L10.5546 8.26808C10.6295 8.33155 10.7052 8.39612 10.7816 8.46175L10.7342 8.51698C10.8075 8.57984 10.8815 8.64369 10.9561 8.7085L11.0038 8.65353C11.0779 8.71782 11.1527 8.78307 11.2281 8.84925L11.1801 8.90396C11.253 8.96797 11.3266 9.03286 11.4008 9.09862L11.4491 9.04414C11.5224 9.10908 11.5962 9.17487 11.6707 9.24149L11.6222 9.29574C11.6948 9.36072 11.768 9.4265 11.8418 9.49305L11.8905 9.43902C11.9632 9.50458 12.0364 9.57091 12.1101 9.63798L12.0611 9.69182C12.1333 9.75756 12.206 9.82403 12.2793 9.89121L12.3285 9.83757C12.4006 9.90375 12.4733 9.97062 12.5463 10.0382L12.4969 10.0916C12.5687 10.158 12.641 10.225 12.7136 10.2927L12.7632 10.2394C12.835 10.3062 12.9072 10.3736 12.9798 10.4417L12.93 10.4948C13.0013 10.5616 13.073 10.6291 13.1451 10.6971L13.1951 10.6442C13.2665 10.7116 13.3383 10.7796 13.4106 10.8482L13.3604 10.901C13.4312 10.9682 13.5024 11.036 13.5739 11.1044L13.6242 11.0518C13.6955 11.1198 13.767 11.1884 13.839 11.2576L13.7885 11.31C13.8588 11.3776 13.9295 11.4457 14.0004 11.5143L14.051 11.462C14.122 11.5306 14.1933 11.5997 14.2649 11.6694L14.2142 11.7215C14.2841 11.7895 14.3542 11.8579 14.4247 11.9267L14.4756 11.8747C14.546 11.9435 14.6167 12.0128 14.6877 12.0825L14.6367 12.1345C14.7065 12.2031 14.7766 12.2721 14.847 12.3416L14.8981 12.2898C14.968 12.3588 15.0381 12.4282 15.1085 12.4981L15.0572 12.5497C15.127 12.619 15.1971 12.6887 15.2674 12.7588L15.3188 12.7073C15.3881 12.7764 15.4577 12.846 15.5275 12.9159L15.4759 12.9673C15.5457 13.0372 15.6157 13.1075 15.6859 13.1782L15.7375 13.1269C15.8064 13.1962 15.8755 13.2659 15.9448 13.336L15.893 13.3872C15.9622 13.4571 16.0316 13.5274 16.1012 13.5981L16.1531 13.5471C16.222 13.6171 16.2912 13.6875 16.3605 13.7582L16.3085 13.8092C16.3772 13.8792 16.446 13.9496 16.515 14.0203L16.5671 13.9695C16.6362 14.0402 16.7054 14.1112 16.7748 14.1826L16.7226 14.2333C16.7907 14.3034 16.859 14.3739 16.9275 14.4446L16.9798 14.394C17.0483 14.4648 17.117 14.5359 17.1858 14.6073L17.1334 14.6578L17.2367 14.7651L17.357 14.8901L17.362 14.7167L17.3662 14.5711L17.2934 14.5689C17.2963 14.4719 17.2993 14.3752 17.3023 14.2789L17.375 14.2811L17.3843 13.993L17.3116 13.9906C17.3148 13.8935 17.318 13.7968 17.3214 13.7003L17.3941 13.7029L17.4045 13.4135L17.3317 13.4108C17.3353 13.3145 17.3389 13.2185 17.3425 13.1228L17.4153 13.1256L17.4267 12.8349L17.354 12.832C17.3578 12.7354 17.3618 12.6392 17.3658 12.5433L17.4386 12.5464L17.451 12.2573L17.3783 12.2541C17.3826 12.157 17.3869 12.0603 17.3913 11.9641L17.4641 11.9674L17.4776 11.6799L17.4048 11.6765C17.4095 11.5791 17.4143 11.4822 17.4191 11.3857L17.4918 11.3894L17.5065 11.1007L17.4338 11.0969C17.4388 11.0002 17.444 10.904 17.4491 10.8082L17.5218 10.8121C17.5271 10.715 17.5324 10.6184 17.5379 10.5222L17.4652 10.5181C17.4706 10.4219 17.4761 10.3261 17.4817 10.2309L17.5544 10.2351C17.5601 10.1377 17.5658 10.0408 17.5717 9.94447L17.4991 9.94005C17.5049 9.84342 17.5109 9.7473 17.517 9.65171L17.5896 9.65631C17.5957 9.55947 17.6019 9.46317 17.6082 9.36742L17.5356 9.36265C17.542 9.26561 17.5484 9.16913 17.555 9.07322L17.6276 9.07817C17.6341 8.98186 17.6408 8.88612 17.6475 8.79097L17.5749 8.78583C17.5818 8.68838 17.5888 8.59154 17.5959 8.49532L17.6685 8.50066C17.6755 8.40451 17.6827 8.30898 17.6899 8.2141L17.6174 8.20856C17.6248 8.11101 17.6323 8.01413 17.6399 7.91793L17.7125 7.92368C17.7201 7.82725 17.7279 7.73152 17.7357 7.63648L17.6631 7.63052C17.6711 7.53327 17.6792 7.43674 17.6874 7.34096L17.7599 7.34715C17.7681 7.2505 17.7765 7.1546 17.7849 7.05947L17.7124 7.05305C17.721 6.956 17.7297 6.85976 17.7385 6.76432L17.811 6.771C17.8199 6.67418 17.8289 6.5782 17.838 6.48308L17.7655 6.47614C17.7748 6.37919 17.7842 6.28312 17.7937 6.18795L17.8661 6.19516C17.8757 6.09828 17.8855 6.00233 17.8953 5.90733L17.8229 5.89983C17.833 5.80284 17.8431 5.70683 17.8534 5.61182L17.9257 5.61963C17.9362 5.52283 17.9467 5.42708 17.9574 5.33239L17.885 5.32425C17.896 5.22706 17.907 5.13098 17.9182 5.03603L17.9905 5.04452C18.0018 4.94801 18.0132 4.85268 18.0248 4.75855L17.9525 4.74969C17.9645 4.65213 17.9766 4.55585 17.9887 4.46087L18.0609 4.47014C18.0733 4.37421 18.0857 4.27962 18.0982 4.18639L18.0261 4.17668C18.0393 4.07861 18.0526 3.98202 18.066 3.88695L18.1381 3.89713C18.1518 3.80051 18.1655 3.70546 18.1795 3.61201L18.1075 3.6013C18.1219 3.50429 18.1365 3.409 18.1512 3.31545L18.2231 3.32675C18.2384 3.22926 18.2538 3.13369 18.2694 3.04007L18.1976 3.02811C18.2138 2.93134 18.23 2.83663 18.2464 2.74402L18.3181 2.75672C18.3352 2.65997 18.3525 2.56553 18.37 2.47345L18.2985 2.45991C18.317 2.36195 18.3358 2.26663 18.3546 2.17401L18.426 2.18856C18.4458 2.09141 18.4658 1.99727 18.4859 1.9062L18.4149 1.89047C18.4364 1.79314 18.4582 1.69926 18.4801 1.60889L18.5508 1.62607C18.5744 1.52919 18.5981 1.43645 18.622 1.34795L18.5518 1.32896C18.5782 1.23112 18.6049 1.13832 18.6319 1.05068L18.7014 1.07208C18.7314 0.97465 18.7616 0.883898 18.792 0.799952L18.7236 0.775158C18.7593 0.676588 18.7954 0.586959 18.8319 0.50654L18.8982 0.536601C18.9419 0.44012 18.9856 0.358578 19.029 0.291887L18.968 0.252195C19.0323 0.153226 19.0977 0.0826414 19.1639 0.0418162L19.2021 0.103774C19.2374 0.0820377 19.2694 0.0730346 19.2992 0.0730346C19.3289 0.0730346 19.361 0.0820384 19.3962 0.103777L19.4344 0.0418199C19.5006 0.0826465 19.566 0.153231 19.6304 0.2522L19.5693 0.291892C19.6127 0.358583 19.6564 0.440126 19.7002 0.536606L19.7665 0.506546C19.8029 0.586965 19.839 0.676594 19.8747 0.775164L19.8063 0.799957C19.8367 0.883903 19.8669 0.974656 19.8969 1.07208L19.9664 1.05068C19.9934 1.13832 20.0201 1.23112 20.0466 1.32896L19.9763 1.34796C20.0002 1.43646 20.0239 1.52919 20.0475 1.62607L20.1182 1.6089C20.1402 1.69926 20.1619 1.79314 20.1834 1.89047L20.1124 1.9062C20.1325 1.99727 20.1525 2.09141 20.1724 2.18856L20.2437 2.17401C20.2626 2.26664 20.2813 2.36195 20.2999 2.45991L20.2283 2.47346C20.2458 2.56553 20.2631 2.65997 20.2802 2.75672L20.3519 2.74403C20.3683 2.83664 20.3846 2.93134 20.4007 3.02811L20.3289 3.04007C20.3445 3.1337 20.3599 3.22927 20.3752 3.32675L20.4472 3.31545C20.4619 3.409 20.4764 3.50429 20.4909 3.6013L20.4189 3.61201C20.4328 3.70546 20.4466 3.80051 20.4602 3.89714L20.5323 3.88695C20.5457 3.98202 20.559 4.07861 20.5722 4.17668L20.5001 4.18639C20.5126 4.27962 20.5251 4.37421 20.5374 4.47014L20.6096 4.46087C20.6218 4.55585 20.6338 4.65213 20.6458 4.74969L20.5736 4.75855C20.5851 4.85268 20.5965 4.94801 20.6079 5.04452L20.6802 5.03603C20.6913 5.13098 20.7023 5.22706 20.7133 5.32425L20.6409 5.33239C20.6516 5.42708 20.6621 5.52283 20.6726 5.61962L20.7449 5.61182C20.7552 5.70683 20.7653 5.80284 20.7754 5.89983L20.703 5.90733C20.7128 6.00233 20.7226 6.09828 20.7322 6.19515L20.8046 6.18794C20.8141 6.28312 20.8235 6.37919 20.8328 6.47614L20.7603 6.48307C20.7694 6.5782 20.7784 6.67418 20.7873 6.77099L20.8598 6.76432C20.8686 6.85975 20.8773 6.956 20.8859 7.05304L20.8134 7.05947C20.8218 7.1546 20.8302 7.25049 20.8384 7.34715L20.9109 7.34096C20.9191 7.43674 20.9272 7.53326 20.9352 7.63051L20.8627 7.63647C20.8705 7.73151 20.8782 7.82725 20.8858 7.92367L20.9584 7.91793C20.966 8.01412 20.9735 8.111 20.981 8.20856L20.9084 8.21409C20.9156 8.30898 20.9228 8.4045 20.9298 8.50065L21.0024 8.49531C21.0095 8.59153 21.0165 8.68837 21.0234 8.78582L20.9508 8.79096C20.9575 8.88611 20.9642 8.98185 20.9707 9.07816L21.0434 9.07321C21.0499 9.16912 21.0564 9.2656 21.0627 9.36264L20.9901 9.36741C20.9964 9.46316 21.0026 9.55946 21.0087 9.65629L21.0814 9.6517C21.0874 9.74729 21.0934 9.8434 21.0993 9.94003L21.0266 9.94446C21.0325 10.0408 21.0383 10.1377 21.044 10.2351L21.1166 10.2308C21.1222 10.3261 21.1277 10.4219 21.1331 10.5181L21.0605 10.5222C21.0659 10.6184 21.0712 10.715 21.0765 10.8121L21.1492 10.8082C21.1544 10.904 21.1595 11.0002 21.1645 11.0969L21.0918 11.1007L21.1065 11.3893L21.1792 11.3857C21.1841 11.4822 21.1888 11.5791 21.1935 11.6764L21.1208 11.6799L21.1343 11.9674L21.207 11.9641C21.2114 12.0603 21.2157 12.157 21.22 12.2541L21.1473 12.2573L21.1597 12.5463L21.2325 12.5433C21.2365 12.6391 21.2405 12.7354 21.2444 12.832L21.1716 12.8349L21.1831 13.1256L21.2558 13.1228C21.2595 13.2185 21.2631 13.3145 21.2666 13.4108L21.1938 13.4135L21.2042 13.7028L21.2769 13.7003C21.2803 13.7967 21.2836 13.8935 21.2868 13.9906L21.214 13.993L21.2233 14.2811L21.296 14.2788C21.2991 14.3752 21.302 14.4719 21.3049 14.5689L21.2321 14.5711L21.2364 14.7167L21.2414 14.89L21.3616 14.7651L21.4649 14.6578L21.4125 14.6073C21.4813 14.5359 21.55 14.4648 21.6185 14.394L21.6708 14.4446C21.7393 14.3739 21.8076 14.3034 21.8758 14.2333L21.8236 14.1826C21.8929 14.1112 21.9622 14.0402 22.0312 13.9694L22.0833 14.0203C22.1523 13.9496 22.2211 13.8792 22.2898 13.8092L22.2378 13.7582C22.3071 13.6875 22.3763 13.6171 22.4452 13.5471L22.4971 13.5981C22.5667 13.5274 22.6361 13.4571 22.7053 13.3871L22.6535 13.336C22.7228 13.2659 22.7919 13.1962 22.8608 13.1269L22.9124 13.1782C22.9826 13.1075 23.0526 13.0372 23.1224 12.9673L23.0709 12.9159C23.1406 12.846 23.2102 12.7764 23.2795 12.7073L23.3309 12.7588C23.4012 12.6887 23.4713 12.619 23.5411 12.5497L23.4898 12.4981C23.5602 12.4282 23.6303 12.3588 23.7002 12.2898L23.7514 12.3416C23.8217 12.2721 23.8918 12.2031 23.9616 12.1345L23.9106 12.0825C23.9816 12.0128 24.0523 11.9435 24.1228 11.8747L24.1736 11.9267C24.2441 11.8579 24.3143 11.7895 24.3841 11.7215L24.3334 11.6693C24.405 11.5997 24.4763 11.5306 24.5473 11.4619L24.5979 11.5143C24.6689 11.4457 24.7395 11.3776 24.8098 11.31L24.7593 11.2575C24.8313 11.1884 24.9029 11.1198 24.9741 11.0517L25.0244 11.1044C25.0959 11.036 25.1671 10.9682 25.2379 10.901L25.1878 10.8482C25.26 10.7796 25.3318 10.7116 25.4033 10.6442L25.4532 10.6971C25.5253 10.6291 25.597 10.5616 25.6683 10.4948L25.6186 10.4417C25.6912 10.3736 25.7633 10.3062 25.8351 10.2394L25.8847 10.2926C25.9574 10.225 26.0296 10.158 26.1014 10.0916L26.052 10.0382C26.1251 9.97061 26.1977 9.90374 26.2698 9.83755L26.319 9.89119C26.3923 9.82401 26.465 9.75755 26.5372 9.6918L26.4883 9.63797C26.5619 9.57089 26.6351 9.50457 26.7078 9.439L26.7565 9.49304C26.8303 9.42648 26.9035 9.36071 26.9761 9.29573L26.9276 9.24148C27.0021 9.17486 27.0759 9.10907 27.1492 9.04412L27.1975 9.0986C27.2717 9.03284 27.3453 8.96795 27.4182 8.90395L27.3702 8.84923C27.4457 8.78305 27.5204 8.71781 27.5945 8.65352L27.6422 8.70849C27.7169 8.64367 27.7908 8.57983 27.8641 8.51697L27.8167 8.46173C27.8931 8.3961 27.9688 8.33154 28.0437 8.26807L28.0908 8.3236C28.1668 8.25918 28.242 8.1959 28.3163 8.13375L28.2696 8.07791C28.3463 8.01375 28.4222 7.95079 28.4971 7.88907L28.5434 7.94525C28.621 7.88132 28.6976 7.81872 28.7732 7.75746L28.7273 7.70091C28.8049 7.63802 28.8815 7.57655 28.9569 7.5165L29.0022 7.57346C29.0808 7.5109 29.1582 7.44992 29.2344 7.39052L29.1897 7.33311C29.2695 7.27087 29.348 7.21036 29.4252 7.15161L29.4693 7.20952C29.5492 7.14861 29.6278 7.0896 29.7048 7.03254L29.6614 6.97406C29.7423 6.9141 29.8216 6.85627 29.8991 6.80059L29.9416 6.85972C30.0239 6.80064 30.1042 6.74402 30.1826 6.68991L30.1412 6.63001C30.2256 6.57177 30.3076 6.51637 30.3874 6.46389L30.4274 6.5247C30.5129 6.4685 30.5956 6.4157 30.6754 6.36638L30.6372 6.30445C30.7253 6.25004 30.8101 6.19975 30.8914 6.15369L30.9273 6.21703C31.0171 6.1662 31.1024 6.12068 31.1833 6.08057L31.1509 6.01537C31.2481 5.9671 31.3393 5.92635 31.424 5.89334L31.4504 5.96116C31.5508 5.92205 31.6404 5.89473 31.719 5.87887L31.7046 5.80752C31.8227 5.78371 31.9212 5.78339 31.9989 5.8076L31.9772 5.87709C32.0157 5.88908 32.0453 5.908 32.0681 5.93328C32.0898 5.95727 32.1072 5.98904 32.1188 6.03074L32.1889 6.01112C32.2106 6.08846 32.2135 6.18526 32.1985 6.30051L32.1264 6.29112C32.1159 6.37176 32.0959 6.46331 32.0662 6.56565L32.1361 6.58592C32.1113 6.67147 32.0802 6.76344 32.0429 6.86161L31.9748 6.83576C31.9429 6.91992 31.9062 7.00895 31.8649 7.10272L31.9315 7.13206C31.8942 7.21678 31.8532 7.30515 31.8086 7.39707L31.7431 7.36531C31.7028 7.44857 31.6594 7.53484 31.6131 7.62404L31.6777 7.65758C31.6345 7.74086 31.5887 7.82662 31.5405 7.91478L31.4766 7.87984C31.4315 7.96231 31.3842 8.04693 31.3347 8.13366L31.3979 8.16973C31.3507 8.25241 31.3016 8.33695 31.2506 8.42332L31.1879 8.3863C31.1397 8.46796 31.0897 8.55127 31.0381 8.63621L31.1003 8.67403C31.0511 8.75494 31.0004 8.8373 30.9481 8.92108L30.8864 8.88257C30.8359 8.96352 30.784 9.0458 30.7308 9.12939L30.7922 9.16851C30.7405 9.24955 30.6876 9.33182 30.6334 9.41527L30.5723 9.37562C30.5207 9.45518 30.4678 9.53583 30.4138 9.61755L30.4745 9.65768C30.4214 9.73799 30.3673 9.81933 30.312 9.90166L30.2516 9.86109C30.1982 9.94051 30.1439 10.0209 30.0886 10.1021L30.1487 10.1431C30.0948 10.2224 30.0398 10.3025 29.984 10.3835L29.9241 10.3422C29.8693 10.4216 29.8135 10.5018 29.7569 10.5829L29.8166 10.6246C29.7619 10.703 29.7063 10.7821 29.6499 10.862L29.5904 10.82C29.5345 10.8993 29.4778 10.9792 29.4202 11.0599L29.4795 11.1021C29.424 11.1799 29.3678 11.2583 29.3108 11.3373L29.2518 11.2948C29.1951 11.3734 29.1377 11.4527 29.0796 11.5326L29.1385 11.5754C29.0822 11.6529 29.0252 11.731 28.9675 11.8096L28.9088 11.7665C28.8514 11.8447 28.7934 11.9235 28.7348 12.0028L28.7933 12.0461C28.7362 12.1232 28.6786 12.2009 28.6203 12.279L28.562 12.2355C28.504 12.3134 28.4453 12.3918 28.3861 12.4706L28.4443 12.5143C28.3867 12.5911 28.3285 12.6682 28.2698 12.7459L28.2117 12.702C28.1531 12.7796 28.0938 12.8576 28.0341 12.9361L28.092 12.9802C28.0339 13.0565 27.9752 13.1333 27.9161 13.2104L27.8583 13.1662C27.7993 13.2432 27.7397 13.3207 27.6796 13.3986L27.7373 13.4431C27.6785 13.5193 27.6192 13.5959 27.5595 13.6729L27.502 13.6283C27.4426 13.7048 27.3827 13.7817 27.3224 13.859L27.3797 13.9038C27.3203 13.98 27.2604 14.0565 27.2 14.1334L27.1428 14.0885C27.0831 14.1645 27.023 14.2408 26.9624 14.3175L27.0196 14.3626C26.9594 14.4388 26.8989 14.5153 26.8379 14.5922L26.7809 14.5469C26.721 14.6224 26.6607 14.6982 26.5999 14.7744L26.6568 14.8198C26.5961 14.8959 26.5349 14.9724 26.4734 15.0491L26.4166 15.0036C26.3564 15.0787 26.2959 15.154 26.2349 15.2297L26.2916 15.2753C26.2307 15.3509 26.1694 15.4268 26.1078 15.503L26.0512 15.4572C25.9903 15.5324 25.9291 15.6078 25.8675 15.6835L25.924 15.7295C25.8629 15.8045 25.8015 15.8799 25.7398 15.9554L25.6834 15.9094C25.6218 15.9847 25.5599 16.0603 25.4977 16.1361L25.554 16.1823C25.4928 16.2568 25.4313 16.3316 25.3694 16.4066L25.3133 16.3603C25.2515 16.4353 25.1894 16.5105 25.1269 16.5859L25.183 16.6323C25.1212 16.7069 25.0592 16.7817 24.9968 16.8566L24.9409 16.8101L24.7543 17.034L24.8102 17.0807C24.7477 17.1554 24.685 17.2304 24.622 17.3055L24.5662 17.2588L24.3794 17.4811L24.4351 17.528C24.3725 17.6023 24.3097 17.6768 24.2465 17.7515L24.1909 17.7045L24.0961 17.8166Z" stroke="#232229" stroke-width="0.145581" stroke-dasharray="0.29 0.29"/>
<path d="M22.987 17.8634C30.6462 18.1338 36.269 19.0283 36.269 20.0902C36.269 21.152 30.6462 22.0466 22.987 22.3169C28.2303 28.508 31.6353 33.5452 30.9575 34.2961C30.2797 35.0469 25.7329 31.2748 20.1445 25.466C19.9004 33.9512 19.093 40.1803 18.1345 40.1803C17.176 40.1803 16.3685 33.9512 16.1245 25.466C10.5361 31.2748 5.98922 35.0469 5.31147 34.2961C4.63371 33.5452 8.03864 28.508 13.282 22.3169C5.62277 22.0466 0 21.152 0 20.0902C0 19.0283 5.62277 18.1338 13.282 17.8634C8.03864 11.6723 4.63371 6.63512 5.31146 5.88428C5.98922 5.13343 10.5361 8.90557 16.1245 14.7144C16.3685 6.22915 17.176 0 18.1345 0C19.093 0 19.9004 6.22915 20.1445 14.7144C25.7329 8.90555 30.2797 5.13342 30.9575 5.88427C31.6353 6.63511 28.2303 11.6723 22.987 17.8634Z" fill="#FE6A3A"/>
</svg>
