<svg width="117" height="117" viewBox="0 0 117 117" fill="none" xmlns="http://www.w3.org/2000/svg">
<path d="M54.1281 8.18403C56.4701 6.17271 59.9298 6.17271 62.2717 8.18404L66.6894 11.978C68.196 13.2719 70.2279 13.7727 72.1633 13.3272L77.8381 12.0208C80.8465 11.3282 83.9099 12.936 85.0489 15.8053L87.1974 21.2177C87.9301 23.0636 89.4965 24.4513 91.4173 24.9562L97.0492 26.4366C100.035 27.2215 102 30.0687 101.675 33.1387L101.062 38.9296C100.853 40.9045 101.595 42.8613 103.062 44.201L107.36 48.1291C109.639 50.2115 110.056 53.646 108.342 56.2133L105.108 61.0561C104.005 62.7077 103.753 64.7852 104.429 66.6527L106.41 72.1286C107.46 75.0317 106.233 78.2665 103.522 79.7431L98.4078 82.5283C96.6637 83.4782 95.4749 85.2005 95.2052 87.168L94.4144 92.9373C93.9952 95.9958 91.4056 98.29 88.3188 98.3375L82.4963 98.4272C80.5105 98.4577 78.6575 99.4303 77.5043 101.047L74.123 105.788C72.3304 108.301 68.9713 109.129 66.216 107.737L61.0188 105.11C59.2463 104.215 57.1536 104.215 55.3811 105.11L50.1838 107.737C47.4286 109.129 44.0694 108.301 42.2768 105.788L38.8955 101.047C37.7423 99.4303 35.8893 98.4577 33.9036 98.4272L28.081 98.3375C24.9943 98.29 22.4047 95.9958 21.9854 92.9373L21.1946 87.168C20.9249 85.2004 19.7361 83.4782 17.992 82.5283L12.8781 79.7431C10.167 78.2665 8.94018 75.0316 9.99033 72.1286L11.9712 66.6527C12.6468 64.7852 12.3946 62.7077 11.2917 61.0561L8.05786 56.2133C6.34349 53.646 6.76051 50.2115 9.03947 48.1291L13.3383 44.201C14.8043 42.8613 15.5464 40.9045 15.3374 38.9296L14.7246 33.1387C14.3997 30.0687 16.365 27.2215 19.3507 26.4366L24.9826 24.9562C26.9033 24.4513 28.4697 23.0636 29.2024 21.2177L31.3509 15.8053C32.4899 12.936 35.5533 11.3282 38.5618 12.0208L44.2366 13.3272C46.1719 13.7727 48.2038 13.2719 49.7104 11.978L54.1281 8.18403Z" fill="#FBC800"/>
<path d="M48.1503 42.156V50.1618L42.5256 42.156H40.5569V55.2803H43.1443V47.2557L48.769 55.2803H50.7376V42.156H48.1503ZM55.1034 51.5867H62.1718C62.228 51.268 62.2655 50.9493 62.2655 50.593C62.2655 47.8369 60.2969 45.6433 57.522 45.6433C54.5784 45.6433 52.5723 47.7994 52.5723 50.593C52.5723 53.3867 54.5596 55.5428 57.7095 55.5428C59.5094 55.5428 60.9156 54.8116 61.7968 53.5366L59.8469 52.4117C59.4344 52.9554 58.6844 53.3492 57.747 53.3492C56.4721 53.3492 55.4409 52.8242 55.1034 51.5867ZM55.0659 49.7118C55.3471 48.5119 56.2283 47.8182 57.522 47.8182C58.5344 47.8182 59.5469 48.3619 59.8469 49.7118H55.0659ZM74.1435 45.9058L72.5498 51.6805L70.8436 45.9058H68.5562L66.8501 51.6617L65.2564 45.9058H62.6878L65.6689 55.2803H67.975L69.6999 49.5993L71.4248 55.2803H73.731L76.7121 45.9058H74.1435ZM32.0486 73.8054V70.8618H37.0171V68.4245H32.0486V65.6309H37.4859V63.156H29.4613V76.2803H37.5796V73.8054H32.0486ZM46.1954 63.156V68.012C45.5204 67.1495 44.5267 66.6433 43.158 66.6433C40.6457 66.6433 38.5833 68.7994 38.5833 71.593C38.5833 74.3867 40.6457 76.5428 43.158 76.5428C44.5267 76.5428 45.5204 76.0366 46.1954 75.1741V76.2803H48.614V63.156H46.1954ZM43.608 74.2367C42.1081 74.2367 41.0019 73.168 41.0019 71.593C41.0019 70.0181 42.1081 68.9494 43.608 68.9494C45.0892 68.9494 46.1954 70.0181 46.1954 71.593C46.1954 73.168 45.0892 74.2367 43.608 74.2367ZM52.0259 65.7808C52.8508 65.7808 53.5258 65.1059 53.5258 64.2997C53.5258 63.4935 52.8508 62.7997 52.0259 62.7997C51.2197 62.7997 50.5447 63.4935 50.5447 64.2997C50.5447 65.1059 51.2197 65.7808 52.0259 65.7808ZM50.826 76.2803H53.2446V66.9058H50.826V76.2803ZM60.8205 69.2307V66.9058H58.7019V64.2809L56.2832 65.0121V66.9058H54.6521V69.2307H56.2832V73.1305C56.2832 75.6616 57.4269 76.6553 60.8205 76.2803V74.0867C59.4331 74.1617 58.7019 74.1429 58.7019 73.1305V69.2307H60.8205ZM63.7257 65.7808C64.5507 65.7808 65.2257 65.1059 65.2257 64.2997C65.2257 63.4935 64.5507 62.7997 63.7257 62.7997C62.9195 62.7997 62.2446 63.4935 62.2446 64.2997C62.2446 65.1059 62.9195 65.7808 63.7257 65.7808ZM62.5258 76.2803H64.9444V66.9058H62.5258V76.2803ZM71.6204 76.5428C74.3765 76.5428 76.5889 74.3867 76.5889 71.593C76.5889 68.7994 74.3765 66.6433 71.6204 66.6433C68.8643 66.6433 66.6706 68.7994 66.6706 71.593C66.6706 74.3867 68.8643 76.5428 71.6204 76.5428ZM71.6204 74.1804C70.1955 74.1804 69.0893 73.1117 69.0893 71.593C69.0893 70.0744 70.1955 69.0057 71.6204 69.0057C73.0641 69.0057 74.1703 70.0744 74.1703 71.593C74.1703 73.1117 73.0641 74.1804 71.6204 74.1804ZM83.5026 66.6433C82.2464 66.6433 81.2715 67.112 80.709 67.9557V66.9058H78.2904V76.2803H80.709V71.2181C80.709 69.5869 81.5902 68.8932 82.7714 68.8932C83.8588 68.8932 84.6275 69.5494 84.6275 70.8243V76.2803H87.0462V70.5244C87.0462 68.0307 85.49 66.6433 83.5026 66.6433Z" fill="#232229"/>
<path d="M53.3226 4.18887L53.8598 3.72759L53.987 3.87575L54.2556 3.64511C54.3467 3.56682 54.4396 3.49168 54.5341 3.4197L54.4158 3.26434C54.6136 3.1136 54.8183 2.97621 55.0287 2.85218L55.1279 3.02041C55.335 2.89828 55.5477 2.78953 55.7648 2.69415L55.6862 2.51535C55.9129 2.41574 56.1443 2.33026 56.3789 2.2589L56.4358 2.44576C56.6648 2.3761 56.8972 2.32033 57.1315 2.27845L57.0972 2.08619C57.3401 2.04277 57.5851 2.01382 57.8308 1.99933L57.8423 2.1943C58.0806 2.18024 58.3196 2.18024 58.558 2.1943L58.5695 1.99933C58.8152 2.01382 59.0602 2.04277 59.3031 2.08619L59.2687 2.27845C59.5031 2.32033 59.7354 2.3761 59.9645 2.44576L60.0213 2.25891C60.256 2.33026 60.4873 2.41575 60.714 2.51535L60.6355 2.69415C60.8526 2.78953 61.0653 2.89829 61.2724 3.02041L61.3716 2.85218C61.5819 2.97621 61.7866 3.1136 61.9845 3.26434L61.8661 3.4197C61.9606 3.49168 62.0535 3.56682 62.1447 3.64511L62.4133 3.87575L62.5405 3.72759L63.0776 4.18888L62.9504 4.33704L63.4875 4.79832L63.6147 4.65016L64.1518 5.11144L64.0246 5.2596L64.5617 5.72088L64.689 5.57272L65.2261 6.03401L65.0988 6.18217L65.6359 6.64345L65.7632 6.49529L66.3003 6.95657L66.173 7.10473L66.7102 7.56602L66.8374 7.41785L67.3745 7.87914L67.2473 8.0273L67.5158 8.25794C67.6115 8.34009 67.7092 8.41914 67.8088 8.49506L67.9272 8.33972C68.1221 8.48826 68.3245 8.62441 68.5333 8.74788L68.4338 8.91598C68.6509 9.04438 68.8746 9.1595 69.1037 9.261L69.1829 9.08244C69.4061 9.18134 69.6346 9.26692 69.8671 9.33887L69.8093 9.52544C70.0495 9.59975 70.2938 9.65997 70.5409 9.70577L70.5765 9.51373C70.8158 9.55807 71.0579 9.58848 71.3015 9.60464L71.2886 9.79952C71.5386 9.81611 71.7902 9.81815 72.0421 9.80534L72.0322 9.61029C72.2744 9.59797 72.5169 9.57148 72.7585 9.53054L72.7912 9.7231C72.9146 9.70217 73.0379 9.67758 73.1608 9.64929L73.5058 9.56987L73.4619 9.37955L74.1519 9.22071L74.1957 9.41104L74.8857 9.2522L74.8419 9.06188L75.5318 8.90304L75.5756 9.09336L76.2656 8.93453L76.2218 8.7442L76.9117 8.58537L76.9556 8.77569L77.6455 8.61685L77.6017 8.42653L78.2917 8.26769L78.3355 8.45802L79.0254 8.29918L78.9816 8.10886L79.6716 7.95002L79.7154 8.14034L80.0604 8.06093C80.1775 8.03397 80.2946 8.01061 80.4118 7.99078L80.3792 7.79822C80.6244 7.7567 80.8695 7.73018 81.1134 7.7181L81.1231 7.91316C81.3632 7.90127 81.6021 7.90383 81.8386 7.92026L81.8522 7.72543C82.0992 7.74259 82.3438 7.77441 82.5847 7.82028L82.5482 8.01214C82.7834 8.05691 83.0151 8.11551 83.242 8.18733L83.3009 8.00113C83.5362 8.07558 83.7666 8.1638 83.9909 8.26515L83.9105 8.44312C84.1281 8.54144 84.3397 8.65252 84.5442 8.77573L84.645 8.60844C84.8558 8.73544 85.0593 8.87493 85.2542 9.02628L85.1344 9.18055C85.3225 9.32654 85.5023 9.4839 85.6728 9.65203L85.8099 9.51299C85.9845 9.68523 86.1497 9.86843 86.3041 10.062L86.1514 10.1838C86.2993 10.3691 86.4372 10.5643 86.5638 10.7687L86.7298 10.6658C86.8584 10.8734 86.9758 11.0902 87.081 11.3156L86.904 11.3981C86.9542 11.5058 87.0015 11.6155 87.0459 11.7272L87.1765 12.0562L87.358 11.9842L87.6192 12.6422L87.4377 12.7143L87.6989 13.3723L87.8804 13.3003L88.1417 13.9583L87.9601 14.0304L88.2214 14.6884L88.4029 14.6164L88.6641 15.2744L88.4826 15.3465L88.7438 16.0045L88.9253 15.9325L89.1865 16.5905L89.005 16.6626L89.2662 17.3207L89.4478 17.2486L89.709 17.9067L89.5275 17.9787L89.6581 18.3077C89.7046 18.4249 89.7544 18.5403 89.8073 18.6539L89.9843 18.5713C90.0879 18.7934 90.2038 19.008 90.3313 19.2144L90.1651 19.317C90.2977 19.5316 90.4423 19.7375 90.598 19.9338L90.751 19.8125C90.9027 20.0038 91.0652 20.1858 91.2377 20.3575L91.0998 20.4959C91.2779 20.6733 91.4663 20.8401 91.6638 20.9956L91.7846 20.8421C91.9759 20.9925 92.1761 21.132 92.3843 21.2595L92.2823 21.426C92.496 21.5569 92.7178 21.6756 92.9468 21.7814L93.0286 21.604C93.2488 21.7057 93.4759 21.7949 93.7088 21.871L93.6482 22.0566C93.7673 22.0955 93.8879 22.131 94.0098 22.1631L94.3522 22.2531L94.4018 22.0642L95.0866 22.2442L95.0369 22.4331L95.7217 22.6131L95.7713 22.4242L96.4561 22.6042L96.4064 22.793L97.0912 22.973L97.1408 22.7842L97.8256 22.9642L97.7759 23.153L98.4607 23.333L98.5103 23.1442L99.1951 23.3242L99.1454 23.513L99.8301 23.693L99.8798 23.5041L100.565 23.6841L100.515 23.873L100.857 23.963C100.973 23.9936 101.088 24.0273 101.201 24.0642L101.262 23.8786C101.498 23.9558 101.727 24.0462 101.949 24.1488L101.867 24.3261C102.085 24.4271 102.295 24.5404 102.497 24.6649L102.6 24.4987C102.811 24.6287 103.012 24.7705 103.204 24.9231L103.083 25.076C103.27 25.2249 103.448 25.3845 103.616 25.5535L103.754 25.416C103.928 25.5913 104.091 25.7765 104.243 25.9705L104.089 26.0907C104.236 26.2789 104.371 26.4756 104.495 26.6797L104.662 26.5784C104.79 26.7888 104.905 27.0069 105.008 27.2315L104.83 27.3125C104.928 27.5291 105.015 27.752 105.087 27.9801L105.273 27.9207C105.348 28.1544 105.409 28.3933 105.456 28.6365L105.264 28.6734C105.309 28.9062 105.34 29.1431 105.357 29.3829L105.552 29.369C105.57 29.6125 105.573 29.859 105.561 30.1075L105.366 30.0984C105.361 30.217 105.351 30.3362 105.339 30.4557L105.302 30.8077L105.496 30.8283L105.421 31.5323L105.227 31.5118L105.153 32.2159L105.347 32.2364L105.272 32.9405L105.078 32.9199L105.003 33.624L105.198 33.6446L105.123 34.3486L104.929 34.3281L104.854 35.0321L105.049 35.0527L104.974 35.7568L104.78 35.7362L104.705 36.4403L104.9 36.4608L104.825 37.1649L104.631 37.1444L104.594 37.4964C104.58 37.6218 104.571 37.7471 104.565 37.8722L104.76 37.8814C104.749 38.1262 104.751 38.3701 104.768 38.6121L104.574 38.6257C104.591 38.8773 104.624 39.1268 104.67 39.373L104.862 39.3367C104.908 39.5766 104.967 39.8133 105.04 40.0455L104.853 40.1039C104.929 40.3438 105.018 40.579 105.121 40.8085L105.299 40.7287C105.398 40.9508 105.511 41.1673 105.636 41.377L105.468 41.4771C105.597 41.6922 105.738 41.9005 105.891 42.1005L106.046 41.9815C106.194 42.1739 106.354 42.3584 106.525 42.534L106.385 42.6702C106.472 42.76 106.562 42.8474 106.655 42.9325L106.917 43.1713L107.048 43.0271L107.571 43.5047L107.439 43.6489L107.962 44.1265L108.094 43.9823L108.616 44.4599L108.485 44.6041L109.007 45.0817L109.139 44.9375L109.662 45.4151L109.53 45.5593L110.053 46.0369L110.184 45.8927L110.707 46.3703L110.575 46.5145L111.098 46.9921L111.23 46.8479L111.752 47.3255L111.621 47.4696L111.882 47.7084C111.971 47.7895 112.056 47.8727 112.139 47.9578L112.279 47.8216C112.453 47.9998 112.614 48.1865 112.762 48.3803L112.607 48.4991C112.753 48.69 112.887 48.888 113.008 49.092L113.176 48.9925C113.302 49.2055 113.415 49.4249 113.514 49.6492L113.335 49.7282C113.432 49.9472 113.515 50.1711 113.585 50.3987L113.772 50.3414C113.844 50.5774 113.903 50.8171 113.947 51.0592L113.754 51.0941C113.797 51.329 113.826 51.5663 113.841 51.8046L114.036 51.7925C114.051 52.0382 114.052 52.2849 114.038 52.5313L113.843 52.5203C113.83 52.758 113.802 52.9954 113.761 53.2312L113.953 53.2651C113.91 53.5066 113.853 53.7466 113.782 53.9837L113.595 53.9272C113.526 54.1542 113.444 54.3785 113.348 54.5988L113.527 54.677C113.429 54.9007 113.317 55.1205 113.192 55.3351L113.023 55.2364C112.963 55.3388 112.9 55.4401 112.833 55.5401L112.636 55.8345L112.799 55.9429L112.406 56.5317L112.243 56.4233L111.85 57.0121L112.012 57.1205L111.619 57.7093L111.457 57.6009L111.064 58.1897L111.226 58.2981L110.833 58.8869L110.67 58.7785L110.277 59.3672L110.44 59.4757L110.046 60.0645L109.884 59.956L109.491 60.5448L109.653 60.6533L109.26 61.2421L109.098 61.1336L108.901 61.428C108.831 61.5329 108.764 61.6394 108.701 61.7475L108.869 61.8463C108.746 62.0577 108.635 62.275 108.537 62.4971L108.358 62.4187C108.257 62.6497 108.17 62.8856 108.097 63.1253L108.284 63.1823C108.212 63.4158 108.155 63.653 108.111 63.8924L107.919 63.8576C107.874 64.105 107.844 64.3547 107.828 64.6056L108.023 64.6178C108.008 64.8607 108.007 65.1047 108.021 65.3485L107.825 65.3591C107.839 65.6093 107.867 65.8593 107.911 66.1079L108.103 66.0745C108.144 66.3135 108.2 66.551 108.27 66.7859L108.082 66.8415C108.118 66.9616 108.157 67.081 108.2 67.1995L108.321 67.5324L108.504 67.466L108.745 68.1318L108.562 68.1982L108.802 68.864L108.986 68.7976L109.227 69.4633L109.043 69.5298L109.284 70.1956L109.468 70.1291L109.709 70.7949L109.525 70.8614L109.766 71.5271L109.949 71.4607L110.19 72.1265L110.007 72.1929L110.247 72.8587L110.431 72.7923L110.672 73.458L110.488 73.5245L110.609 73.8574C110.65 73.9704 110.687 74.0839 110.721 74.1978L110.908 74.1422C110.979 74.3807 111.035 74.6208 111.076 74.8614L110.884 74.8945C110.924 75.1315 110.951 75.3689 110.963 75.6057L111.158 75.5957C111.17 75.843 111.168 76.0896 111.152 76.3343L110.957 76.3212C110.941 76.5601 110.911 76.7971 110.867 77.0311L111.059 77.0671C111.013 77.3097 110.953 77.549 110.88 77.7839L110.693 77.7255C110.622 77.9533 110.537 78.1768 110.44 78.3947L110.618 78.4746C110.517 78.6991 110.403 78.918 110.276 79.1297L110.109 79.0294C109.987 79.2337 109.852 79.4311 109.706 79.6206L109.86 79.74C109.71 79.9341 109.548 80.1201 109.375 80.2968L109.236 80.1599C109.069 80.3291 108.892 80.4894 108.705 80.6397L108.827 80.7922C108.636 80.9448 108.435 81.0875 108.224 81.2191L108.121 81.0533C108.02 81.1161 107.917 81.1764 107.811 81.2338L107.5 81.4032L107.594 81.5747L106.972 81.9133L106.879 81.7418L106.257 82.0804L106.35 82.2519L105.728 82.5906L105.635 82.4191L105.013 82.7577L105.107 82.9292L104.485 83.2679L104.391 83.0963L103.77 83.435L103.863 83.6065L103.241 83.9451L103.148 83.7736L102.526 84.1123L102.62 84.2838L101.998 84.6224L101.904 84.4509L101.594 84.6202C101.483 84.6805 101.374 84.7438 101.268 84.8101L101.371 84.9758C101.163 85.1054 100.964 85.2464 100.775 85.3978L100.653 85.2452C100.456 85.4027 100.269 85.571 100.093 85.7492L100.231 85.8865C100.06 86.0602 99.8988 86.2435 99.7491 86.4353L99.5951 86.3152C99.4404 86.5134 99.2975 86.7205 99.167 86.9353L99.334 87.0367C99.2077 87.2447 99.0934 87.4603 98.9919 87.6824L98.8143 87.6012C98.7101 87.829 98.619 88.0636 98.5416 88.3036L98.7275 88.3635C98.6531 88.5944 98.5919 88.8305 98.5445 89.0709L98.3529 89.0332C98.3287 89.1561 98.308 89.28 98.2908 89.4049L98.2428 89.7557L98.4363 89.7822L98.3401 90.4836L98.1466 90.4571L98.0505 91.1586L98.244 91.1851L98.1478 91.8865L97.9543 91.86L97.8582 92.5615L98.0517 92.588L97.9555 93.2894L97.762 93.2629L97.6659 93.9643L97.8594 93.9909L97.7632 94.6923L97.5697 94.6658L97.4736 95.3672L97.6671 95.3938L97.5709 96.0952L97.3774 96.0687L97.3294 96.4194C97.313 96.5385 97.2933 96.6563 97.2703 96.7729L97.4619 96.8107C97.4138 97.0547 97.3517 97.2933 97.2765 97.5256L97.0907 97.4655C97.0166 97.6942 96.9295 97.9167 96.8303 98.132L97.0077 98.2138C96.904 98.4386 96.7875 98.656 96.6592 98.8651L96.4928 98.7629C96.3675 98.9669 96.2306 99.1627 96.0829 99.3495L96.2362 99.4706C96.0831 99.6642 95.9189 99.8483 95.7446 100.022L95.6067 99.8838C95.4376 100.052 95.2587 100.211 95.071 100.358L95.1917 100.512C94.9982 100.664 94.7956 100.805 94.585 100.933L94.4832 100.767C94.28 100.891 94.0691 101.003 93.8515 101.103L93.9328 101.28C93.7099 101.383 93.48 101.472 93.2443 101.548L93.1845 101.362C92.9588 101.434 92.7274 101.494 92.4914 101.54L92.5287 101.732C92.2891 101.778 92.0447 101.811 91.7967 101.83L91.7822 101.635C91.6638 101.644 91.5444 101.649 91.4243 101.651L91.0703 101.656L91.0733 101.852L90.3654 101.863L90.3624 101.667L89.6544 101.678L89.6575 101.873L88.9495 101.884L88.9465 101.689L88.2386 101.7L88.2416 101.895L87.5337 101.906L87.5307 101.711L86.8228 101.722L86.8258 101.917L86.1178 101.928L86.1148 101.733L85.4069 101.744L85.4099 101.939L84.702 101.95L84.699 101.754L84.345 101.76C84.219 101.762 84.0934 101.767 83.9685 101.777L83.9829 101.971C83.7385 101.989 83.4967 102.022 83.2586 102.068L83.2215 101.876C82.9739 101.924 82.7301 101.986 82.4913 102.062L82.5505 102.248C82.3178 102.322 82.0901 102.41 81.8683 102.51L81.7878 102.332C81.5588 102.436 81.336 102.553 81.1206 102.682L81.2213 102.849C81.0128 102.975 80.8114 103.113 80.6184 103.262L80.4988 103.108C80.3007 103.261 80.111 103.426 79.9309 103.603L80.0677 103.743C79.8946 103.912 79.7306 104.093 79.5769 104.284L79.4248 104.161C79.3463 104.259 79.2703 104.359 79.1971 104.462L78.9915 104.75L79.1505 104.863L78.7394 105.44L78.5804 105.326L78.1693 105.903L78.3283 106.016L77.9172 106.593L77.7582 106.479L77.3471 107.056L77.5061 107.169L77.095 107.745L76.936 107.632L76.5248 108.208L76.6839 108.322L76.2727 108.898L76.1137 108.785L75.7026 109.361L75.8616 109.475L75.4505 110.051L75.2915 109.938L75.086 110.226C75.0162 110.324 74.944 110.419 74.8694 110.511L75.0215 110.634C74.8655 110.828 74.6996 111.01 74.5251 111.181L74.3885 111.041C74.2166 111.209 74.0361 111.366 73.8482 111.51L73.9672 111.665C73.771 111.816 73.5668 111.955 73.356 112.08L73.2561 111.912C73.0504 112.035 72.8381 112.144 72.6206 112.241L72.7 112.42C72.4745 112.52 72.2436 112.607 72.0085 112.679L71.9507 112.493C71.7226 112.564 71.4905 112.621 71.2557 112.664L71.2912 112.856C71.0492 112.901 70.8044 112.931 70.5581 112.947L70.5455 112.753C70.308 112.768 70.069 112.769 69.8299 112.757L69.8195 112.952C69.5745 112.939 69.3295 112.911 69.0855 112.868L69.119 112.676C68.8854 112.635 68.6528 112.581 68.4225 112.512L68.3664 112.699C68.1326 112.629 67.9009 112.544 67.6727 112.445L67.7505 112.266C67.6415 112.219 67.5333 112.168 67.426 112.114L67.1101 111.954L67.022 112.129L66.3901 111.809L66.4782 111.635L65.8463 111.316L65.7582 111.49L65.1263 111.171L65.2144 110.996L64.5825 110.677L64.4944 110.851L63.8625 110.532L63.9506 110.358L63.3187 110.038L63.2306 110.212L62.5987 109.893L62.6868 109.719L62.0549 109.399L61.9668 109.574L61.3349 109.254L61.423 109.08L61.1071 108.92C60.9945 108.864 60.8807 108.81 60.7659 108.76L60.6881 108.94C60.4633 108.842 60.2342 108.758 60.002 108.688L60.0583 108.501C59.8167 108.429 59.572 108.37 59.3253 108.327L59.2912 108.519C59.0508 108.476 58.8084 108.448 58.5655 108.434L58.5769 108.239C58.3259 108.224 58.0743 108.224 57.8234 108.239L57.8348 108.434C57.5918 108.448 57.3495 108.476 57.1091 108.519L57.075 108.327C56.8283 108.37 56.5835 108.429 56.342 108.501L56.3983 108.688C56.1661 108.758 55.937 108.842 55.7122 108.94L55.6344 108.76C55.5195 108.81 55.4057 108.864 55.2932 108.92L54.9772 109.08L55.0653 109.254L54.4334 109.574L54.3453 109.399L53.7134 109.719L53.8015 109.893L53.1696 110.212L53.0815 110.038L52.4496 110.358L52.5377 110.532L51.9058 110.851L51.8177 110.677L51.1858 110.996L51.2739 111.171L50.642 111.49L50.554 111.316L49.9221 111.635L50.0101 111.809L49.3782 112.129L49.2902 111.954L48.9742 112.114C48.867 112.168 48.7588 112.219 48.6498 112.266L48.7275 112.445C48.4993 112.544 48.2677 112.629 48.0338 112.699L47.9777 112.512C47.7474 112.581 47.5149 112.635 47.2813 112.676L47.3148 112.868C47.0708 112.911 46.8257 112.939 46.5808 112.952L46.5703 112.757C46.3313 112.769 46.0923 112.768 45.8548 112.753L45.8421 112.947C45.5958 112.931 45.351 112.901 45.109 112.856L45.1445 112.664C44.9097 112.621 44.6777 112.564 44.4496 112.493L44.3918 112.679C44.1567 112.607 43.9258 112.52 43.7003 112.42L43.7796 112.241C43.5621 112.144 43.3499 112.035 43.1441 111.912L43.0442 112.08C42.8335 111.955 42.6293 111.816 42.433 111.665L42.5521 111.51C42.3641 111.366 42.1836 111.209 42.0118 111.041L41.8752 111.181C41.7007 111.01 41.5348 110.828 41.3787 110.634L41.5308 110.511C41.4563 110.419 41.3841 110.324 41.3143 110.226L41.1088 109.938L40.9497 110.051L40.5386 109.475L40.6976 109.361L40.2865 108.785L40.1275 108.898L39.7164 108.322L39.8754 108.208L39.4643 107.632L39.3053 107.745L38.8942 107.169L39.0532 107.056L38.6421 106.479L38.4831 106.593L38.072 106.016L38.231 105.903L37.8198 105.326L37.6608 105.44L37.2497 104.863L37.4087 104.75L37.2032 104.462C37.13 104.359 37.054 104.259 36.9755 104.161L36.8233 104.284C36.6696 104.093 36.5057 103.912 36.3326 103.743L36.4693 103.603C36.2893 103.426 36.0996 103.261 35.9015 103.108L35.7819 103.262C35.5888 103.113 35.3875 102.975 35.1789 102.849L35.2796 102.682C35.0643 102.553 34.8415 102.436 34.6124 102.332L34.5319 102.51C34.3102 102.41 34.0824 102.322 33.8498 102.248L33.909 102.062C33.6702 101.986 33.4264 101.924 33.1787 101.876L33.1417 102.068C32.9036 102.022 32.6618 101.989 32.4174 101.971L32.4318 101.777C32.3069 101.767 32.1813 101.762 32.0552 101.76L31.7013 101.754L31.6983 101.95L30.9903 101.939L30.9933 101.744L30.2854 101.733L30.2824 101.928L29.5745 101.917L29.5775 101.722L28.8696 101.711L28.8666 101.906L28.1587 101.895L28.1617 101.7L27.4537 101.689L27.4507 101.884L26.7428 101.873L26.7458 101.678L26.0379 101.667L26.0349 101.863L25.327 101.852L25.33 101.656L24.976 101.651C24.8559 101.649 24.7365 101.644 24.618 101.635L24.6036 101.83C24.3555 101.811 24.1112 101.778 23.8715 101.732L23.9088 101.54C23.6728 101.494 23.4415 101.434 23.2157 101.362L23.156 101.548C22.9202 101.472 22.6904 101.383 22.4674 101.28L22.5488 101.103C22.3311 101.003 22.1202 100.891 21.9171 100.767L21.8153 100.933C21.6047 100.805 21.4021 100.664 21.2086 100.512L21.3293 100.358C21.1415 100.211 20.9626 100.052 20.7935 99.8838L20.6556 100.022C20.4814 99.8483 20.3172 99.6642 20.1641 99.4706L20.3173 99.3495C20.1697 99.1627 20.0328 98.9669 19.9075 98.7629L19.741 98.8651C19.6127 98.656 19.4962 98.4386 19.3926 98.2138L19.57 98.132C19.4707 97.9166 19.3836 97.6942 19.3096 97.4655L19.1238 97.5256C19.0486 97.2933 18.9865 97.0547 18.9383 96.8107L19.1299 96.7729C19.1069 96.6563 19.0872 96.5385 19.0709 96.4194L19.0228 96.0687L18.8293 96.0952L18.7332 95.3938L18.9267 95.3672L18.8305 94.6658L18.637 94.6923L18.5409 93.9909L18.7344 93.9643L18.6382 93.2629L18.4447 93.2894L18.3486 92.588L18.5421 92.5615L18.4459 91.86L18.2525 91.8865L18.1563 91.1851L18.3498 91.1586L18.2537 90.4571L18.0602 90.4836L17.964 89.7822L18.1575 89.7557L18.1094 89.4049C18.0923 89.28 18.0716 89.1561 18.0474 89.0332L17.8558 89.0709C17.8084 88.8305 17.7471 88.5944 17.6728 88.3635L17.8587 88.3036C17.7813 88.0636 17.6902 87.829 17.586 87.6012L17.4084 87.6824C17.3069 87.4603 17.1926 87.2447 17.0663 87.0367L17.2332 86.9353C17.1028 86.7205 16.9598 86.5134 16.8052 86.3152L16.6512 86.4353C16.5015 86.2435 16.3404 86.0602 16.1688 85.8865L16.3077 85.7492C16.1316 85.571 15.9446 85.4027 15.7476 85.2452L15.6256 85.3978C15.4362 85.2464 15.2371 85.1054 15.0291 84.9758L15.1324 84.8101C15.0261 84.7438 14.9175 84.6805 14.8068 84.6202L14.4959 84.4509L14.4025 84.6224L13.7807 84.2838L13.8741 84.1123L13.2523 83.7736L13.1589 83.9451L12.5372 83.6065L12.6306 83.435L12.0088 83.0963L11.9154 83.2679L11.2936 82.9292L11.387 82.7577L10.7653 82.4191L10.6718 82.5906L10.0501 82.2519L10.1435 82.0804L9.52172 81.7418L9.42831 81.9133L8.80654 81.5747L8.89995 81.4032L8.58906 81.2338C8.48353 81.1764 8.38034 81.1161 8.27952 81.0533L8.17623 81.2191C7.96511 81.0875 7.76406 80.9448 7.57351 80.7922L7.69563 80.6397C7.508 80.4894 7.33089 80.3291 7.16473 80.1599L7.0254 80.2968C6.85188 80.1201 6.68992 79.9341 6.53998 79.74L6.69454 79.6206C6.54818 79.4311 6.41364 79.2337 6.29139 79.0294L6.12381 79.1297C5.99706 78.9179 5.88311 78.6991 5.78245 78.4746L5.96066 78.3947C5.863 78.1768 5.77825 77.9533 5.70687 77.7255L5.5205 77.7839C5.44692 77.549 5.38712 77.3097 5.34157 77.0671L5.53351 77.0311C5.48958 76.7971 5.45933 76.5601 5.44323 76.3212L5.24837 76.3343C5.23188 76.0896 5.22977 75.843 5.24251 75.5957L5.43755 75.6057C5.44975 75.3689 5.47601 75.1315 5.51676 74.8945L5.32428 74.8614C5.36567 74.6208 5.42154 74.3807 5.49232 74.1422L5.67955 74.1978C5.71335 74.0839 5.75066 73.9704 5.79154 73.8574L5.91196 73.5245L5.7283 73.458L5.96915 72.7923L6.1528 72.8587L6.39365 72.1929L6.20999 72.1265L6.45084 71.4607L6.63449 71.5271L6.87534 70.8613L6.69168 70.7949L6.93252 70.1291L7.11618 70.1956L7.35702 69.5298L7.17337 69.4633L7.41421 68.7976L7.59787 68.864L7.83871 68.1982L7.65506 68.1318L7.8959 67.466L8.07955 67.5324L8.19998 67.1995C8.24287 67.081 8.28213 66.9616 8.31779 66.8415L8.13057 66.7859C8.20034 66.551 8.25586 66.3135 8.29729 66.0745L8.48972 66.1078C8.5328 65.8593 8.5611 65.6093 8.57477 65.3591L8.37976 65.3485C8.39308 65.1047 8.39207 64.8607 8.3769 64.6178L8.57182 64.6056C8.55615 64.3547 8.52582 64.1049 8.481 63.8576L8.28882 63.8924C8.24542 63.653 8.18801 63.4158 8.11674 63.1823L8.30353 63.1253C8.23038 62.8856 8.14308 62.6497 8.04177 62.4187L7.86292 62.4971C7.76551 62.275 7.65475 62.0577 7.53079 61.8463L7.69926 61.7475C7.63591 61.6394 7.56921 61.5329 7.49919 61.428L7.3026 61.1336L7.14018 61.2421L6.747 60.6533L6.90942 60.5448L6.51624 59.956L6.35383 60.0645L5.96065 59.4757L6.12307 59.3672L5.72989 58.7785L5.56747 58.8869L5.17429 58.2981L5.33671 58.1896L4.94353 57.6009L4.78111 57.7093L4.38794 57.1205L4.55036 57.0121L4.15718 56.4233L3.99476 56.5317L3.60158 55.9429L3.764 55.8345L3.56741 55.5401C3.50068 55.4401 3.43729 55.3388 3.37722 55.2364L3.20873 55.3351C3.08293 55.1205 2.97122 54.9007 2.87345 54.677L3.05241 54.5988C2.95614 54.3785 2.87382 54.1542 2.8053 53.9272L2.61833 53.9837C2.54678 53.7466 2.48981 53.5066 2.44726 53.2651L2.6396 53.2312C2.59806 52.9954 2.5707 52.758 2.55737 52.5203L2.36238 52.5313C2.34856 52.2849 2.34934 52.0382 2.36458 51.7925L2.55951 51.8046C2.57428 51.5663 2.60309 51.329 2.64578 51.0941L2.45362 51.0592C2.49761 50.8171 2.55589 50.5773 2.62828 50.3414L2.81499 50.3987C2.88481 50.1711 2.96818 49.9472 3.06494 49.7282L2.8863 49.6492C2.98542 49.4249 3.09817 49.2055 3.22437 48.9925L3.3924 49.092C3.51326 48.888 3.64685 48.69 3.79305 48.4991L3.63801 48.3803C3.78648 48.1865 3.94754 47.9998 4.12104 47.8216L4.261 47.9578C4.34385 47.8727 4.42963 47.7895 4.51834 47.7084L4.77968 47.4696L4.64793 47.3255L5.17059 46.8479L5.30234 46.992L5.825 46.5145L5.69325 46.3703L6.21591 45.8927L6.34766 46.0369L6.87032 45.5593L6.73858 45.4151L7.26124 44.9375L7.39298 45.0817L7.91564 44.6041L7.7839 44.4599L8.30656 43.9823L8.4383 44.1265L8.96097 43.6489L8.82922 43.5047L9.35188 43.0271L9.48363 43.1713L9.74496 42.9325C9.83804 42.8474 9.92829 42.76 10.0157 42.6702L9.87573 42.534C10.0467 42.3584 10.2062 42.1739 10.354 41.9815L10.5088 42.1005C10.6625 41.9005 10.8037 41.6922 10.9321 41.4771L10.7644 41.377C10.8895 41.1673 11.002 40.9508 11.1014 40.7287L11.2797 40.8085C11.3824 40.5791 11.4716 40.3438 11.5469 40.1039L11.3605 40.0455C11.4334 39.8133 11.4927 39.5766 11.5382 39.3367L11.7301 39.373C11.7767 39.1268 11.809 38.8773 11.8267 38.6257L11.6318 38.6121C11.6488 38.3701 11.6517 38.1262 11.6402 37.8814L11.8353 37.8722C11.8294 37.7471 11.8199 37.6218 11.8066 37.4964L11.7693 37.1444L11.5751 37.1649L11.5006 36.4608L11.6948 36.4403L11.6203 35.7362L11.4261 35.7568L11.3516 35.0527L11.5458 35.0321L11.4713 34.3281L11.2771 34.3486L11.2025 33.6446L11.3968 33.624L11.3223 32.9199L11.128 32.9405L11.0535 32.2364L11.2477 32.2158L11.1732 31.5118L10.979 31.5323L10.9045 30.8283L11.0987 30.8077L11.0615 30.4557C11.0488 30.3362 11.0397 30.217 11.0342 30.0984L10.8391 30.1075C10.8274 29.859 10.8307 29.6125 10.8481 29.369L11.0429 29.3829C11.06 29.1431 11.0913 28.9062 11.1362 28.6734L10.9444 28.6365C10.9912 28.3933 11.0523 28.1544 11.1268 27.9207L11.3129 27.9801C11.3857 27.752 11.4718 27.5291 11.5704 27.3124L11.3927 27.2315C11.495 27.0069 11.6103 26.7888 11.738 26.5784L11.9049 26.6797C12.0288 26.4756 12.1646 26.2789 12.3115 26.0907L12.1576 25.9705C12.3091 25.7765 12.4721 25.5913 12.6458 25.416L12.7845 25.5535C12.9521 25.3845 13.13 25.2249 13.3175 25.076L13.196 24.9231C13.388 24.7705 13.5898 24.6287 13.8005 24.4987L13.903 24.6649C14.1049 24.5404 14.3152 24.4271 14.5334 24.3261L14.4513 24.1488C14.6728 24.0462 14.9022 23.9558 15.1386 23.8786L15.1993 24.0642C15.3122 24.0273 15.4268 23.9936 15.543 23.963L15.8854 23.873L15.8357 23.6841L16.5205 23.5041L16.5701 23.693L17.2549 23.513L17.2052 23.3242L17.8899 23.1442L17.9396 23.333L18.6243 23.153L18.5747 22.9642L19.2594 22.7842L19.3091 22.973L19.9938 22.793L19.9442 22.6042L20.6289 22.4242L20.6786 22.6131L21.3633 22.4331L21.3137 22.2442L21.9984 22.0642L22.0481 22.2531L22.3904 22.1631C22.5124 22.131 22.6329 22.0955 22.752 22.0566L22.6914 21.871C22.9244 21.7949 23.1514 21.7057 23.3716 21.604L23.4535 21.7814C23.6825 21.6756 23.9043 21.5569 24.118 21.426L24.016 21.2595C24.2242 21.132 24.4244 20.9925 24.6157 20.8421L24.7364 20.9956C24.934 20.8401 25.1223 20.6733 25.3004 20.4959L25.1626 20.3575C25.335 20.1858 25.4976 20.0038 25.6493 19.8125L25.8023 19.9338C25.958 19.7375 26.1026 19.5316 26.2351 19.317L26.069 19.2144C26.1964 19.008 26.3124 18.7934 26.416 18.5713L26.593 18.6539C26.6459 18.5403 26.6957 18.4249 26.7422 18.3077L26.8728 17.9787L26.6913 17.9067L26.9525 17.2486L27.134 17.3207L27.3952 16.6626L27.2137 16.5905L27.4749 15.9325L27.6565 16.0045L27.9177 15.3465L27.7362 15.2744L27.9974 14.6164L28.1789 14.6884L28.4401 14.0304L28.2586 13.9583L28.5198 13.3003L28.7014 13.3723L28.9626 12.7143L28.781 12.6422L29.0423 11.9842L29.2238 12.0562L29.3544 11.7272C29.3987 11.6155 29.4461 11.5058 29.4963 11.3981L29.3193 11.3156C29.4245 11.0902 29.5419 10.8734 29.6705 10.6658L29.8365 10.7687C29.9631 10.5643 30.1009 10.3691 30.2488 10.1838L30.0962 10.062C30.2506 9.86842 30.4157 9.68523 30.5904 9.51299L30.7275 9.65203C30.898 9.4839 31.0778 9.32653 31.2658 9.18055L31.146 9.02628C31.341 8.87493 31.5445 8.73544 31.7553 8.60844L31.8561 8.77573C32.0606 8.65252 32.2722 8.54144 32.4898 8.44312L32.4094 8.26515C32.6336 8.1638 32.864 8.07558 33.0993 8.00113L33.1582 8.18733C33.3852 8.11551 33.6169 8.05691 33.8521 8.01214L33.8155 7.82028C34.0565 7.77441 34.3011 7.74259 34.5481 7.72543L34.5616 7.92026C34.7982 7.90383 35.0371 7.90127 35.2772 7.91317L35.2868 7.7181C35.5307 7.73018 35.7758 7.7567 36.0211 7.79822L35.9885 7.99078C36.1056 8.01061 36.2228 8.03397 36.3399 8.06093L36.6849 8.14035L36.7287 7.95002L37.4186 8.10886L37.3748 8.29918L38.0648 8.45802L38.1086 8.2677L38.7986 8.42653L38.7547 8.61686L39.4447 8.77569L39.4885 8.58537L40.1785 8.74421L40.1347 8.93453L40.8246 9.09337L40.8684 8.90304L41.5584 9.06188L41.5146 9.2522L42.2045 9.41104L42.2484 9.22071L42.9383 9.37955L42.8945 9.56988L43.2395 9.64929C43.3624 9.67758 43.4856 9.70217 43.6091 9.7231L43.6417 9.53054C43.8833 9.57148 44.1258 9.59797 44.3681 9.61029L44.3581 9.80534C44.61 9.81815 44.8616 9.81611 45.1117 9.79952L45.0987 9.60464C45.3423 9.58848 45.5844 9.55807 45.8237 9.51373L45.8593 9.70577C46.1065 9.65997 46.3508 9.59975 46.5909 9.52544L46.5332 9.33887C46.7657 9.26692 46.9942 9.18134 47.2174 9.08244L47.2965 9.261C47.5256 9.15949 47.7493 9.04438 47.9664 8.91597L47.867 8.74788C48.0757 8.62441 48.2782 8.48826 48.4731 8.33972L48.5914 8.49506C48.6911 8.41914 48.7888 8.34009 48.8844 8.25794L49.153 8.0273L49.0257 7.87914L49.5629 7.41785L49.6901 7.56601L50.2272 7.10473L50.1 6.95657L50.6371 6.49529L50.7643 6.64345L51.3014 6.18217L51.1742 6.034L51.7113 5.57272L51.8386 5.72088L52.3757 5.2596L52.2484 5.11144L52.7855 4.65016L52.9128 4.79832L53.4499 4.33704L53.3226 4.18887Z" stroke="#232229" stroke-width="0.390605" stroke-dasharray="0.78 0.78"/>
</svg>
